<svg width="722" height="273" viewBox="0 0 722 273" fill="none" xmlns="http://www.w3.org/2000/svg">
<rect x="0.5" y="0.5" width="332.5" height="272" rx="7.5" stroke="#606060"/>
<path d="M161.99 52.0694C161.99 59.4477 161.869 66.8113 161.552 74.1847C161.492 75.5866 161.582 79.7051 161.138 78.3739C160.304 75.8706 161.089 71.332 161.308 68.7777C162.276 57.5062 165.997 45.5663 172.293 36.0676C173.695 33.9525 178.372 28.071 181.67 30.6362C184.02 32.4642 182.794 36.7706 181.767 38.8685C178.65 45.2385 173.832 50.9484 168.932 56.0151C164.004 61.1095 157.53 63.0296 150.592 63.0296" stroke="#EBEBEB" stroke-width="3" stroke-linecap="round"/>
<path d="M150.153 62.591C150.153 60.5548 149.337 56.4195 151.469 55.2355C153.215 54.2655 154.937 54.9829 156.535 55.82C158.008 56.5919 160.403 58.4544 158.702 55.5765C158.05 54.4728 154.298 49.3589 157.826 49.9015C159.45 50.1515 161.794 53.4291 162.429 54.6996" stroke="#EBEBEB" stroke-width="3" stroke-linecap="round"/>
<path d="M77.2382 53.4593C77.2382 61.7197 77.2382 69.98 77.2382 78.2403C77.2382 81.9824 75.8266 70.8776 75.4946 67.1503C74.9295 60.8055 74.6537 54.3988 74.7086 48.0287C74.7414 44.2275 74.9759 40.3843 76.3521 36.7958C77.4448 33.9465 81.1509 28.8801 84.8983 30.2218C88.696 31.5815 87.0976 39.2497 86.0701 41.7405C83.8616 47.0944 80.4905 52.589 74.4371 53.6594C70.4079 54.3719 66.7282 53.5951 63.0898 51.9159" stroke="#EBEBEB" stroke-width="1.76029" stroke-linecap="round"/>
<path d="M62.8337 51.1444C60.284 51.1444 57.0547 46.2299 58.2605 43.6843C60.1813 39.6293 68.491 40.5537 71.9801 41.1119C74.4115 41.5009 76.4225 43.6745 76.9677 46.1281C77.2247 47.2845 75.8462 48.6031 75.4386 49.6581C75.019 50.7441 74.9241 52.0415 74.9241 53.2023" stroke="#EBEBEB" stroke-width="1.76029" stroke-linecap="round"/>
<path d="M118.965 166.992C118.965 173.334 118.965 179.676 118.965 186.018C118.965 186.816 119.062 189.089 118.47 186.953C116.64 180.345 116.513 173.581 116.49 166.772C116.462 158.311 114.132 144.493 122.952 139.304C125.294 137.926 133.376 135.117 134.802 138.892C137.037 144.808 131.987 149.906 128.616 154.152C125.746 157.765 121.695 161.739 116.875 162.428C114.984 162.698 101.148 164.095 101.148 160.558C101.148 157.398 100.006 154.124 104.063 154.124C107.933 154.124 109.826 154.883 112.531 157.588C113.541 158.598 114.511 159.229 114.511 160.833C114.511 162.399 113.112 163.457 113.026 165.012C112.792 169.22 109.927 172.565 107.087 175.405" stroke="#EBEBEB" stroke-width="3" stroke-linecap="round"/>
<path d="M262.057 44.8577C262.057 52.9556 262.057 61.0535 262.057 69.1515C262.057 72.2376 262.782 81.3958 262.003 78.4097C260.1 71.1143 258.454 63.6002 258.218 56.0357C257.961 47.822 257.221 39.7208 263.672 33.6258C266.145 31.289 269.223 29.9489 272.643 30.0015C275.806 30.0501 275.677 33.9233 275.55 36.2454C275.274 41.2852 271.193 45.4492 268.696 49.5406C266.534 53.0827 264.106 57.265 260.586 59.678C258.362 61.202 253.923 61.427 251.399 60.7904C247.826 59.8885 246.721 56.9017 246.089 53.6494C245.339 49.7935 249.508 49.0824 252.62 49.7738C256.148 50.558 255.485 58.9397 255.096 61.2748C254.45 65.1506 253.03 67.8851 249.785 70.0486" stroke="#EBEBEB" stroke-width="1.95771" stroke-linecap="round"/>
<path d="M113.211 251.216C112.287 251.216 111.483 251.048 110.799 250.712C110.115 250.376 109.587 249.908 109.215 249.308C108.843 248.708 108.657 248.012 108.657 247.22H110.241C110.241 247.712 110.355 248.168 110.583 248.588C110.811 248.996 111.141 249.326 111.573 249.578C112.017 249.818 112.563 249.938 113.211 249.938C113.775 249.938 114.255 249.848 114.651 249.668C115.059 249.476 115.365 249.218 115.569 248.894C115.785 248.57 115.893 248.204 115.893 247.796C115.893 247.34 115.791 246.962 115.587 246.662C115.395 246.35 115.125 246.098 114.777 245.906C114.429 245.702 114.027 245.522 113.571 245.366C113.115 245.21 112.623 245.048 112.095 244.88C111.039 244.544 110.271 244.124 109.791 243.62C109.323 243.104 109.089 242.444 109.089 241.64C109.089 240.956 109.245 240.356 109.557 239.84C109.881 239.324 110.337 238.922 110.925 238.634C111.525 238.334 112.233 238.184 113.049 238.184C113.853 238.184 114.549 238.334 115.137 238.634C115.737 238.934 116.205 239.348 116.541 239.876C116.877 240.392 117.045 240.992 117.045 241.676H115.461C115.461 241.328 115.371 240.986 115.191 240.65C115.011 240.314 114.735 240.038 114.363 239.822C114.003 239.594 113.547 239.48 112.995 239.48C112.539 239.468 112.131 239.546 111.771 239.714C111.423 239.87 111.147 240.098 110.943 240.398C110.751 240.698 110.655 241.064 110.655 241.496C110.655 241.904 110.739 242.234 110.907 242.486C111.087 242.738 111.339 242.954 111.663 243.134C111.999 243.302 112.389 243.458 112.833 243.602C113.277 243.746 113.769 243.908 114.309 244.088C114.921 244.292 115.461 244.544 115.929 244.844C116.409 245.132 116.781 245.504 117.045 245.96C117.321 246.416 117.459 246.998 117.459 247.706C117.459 248.306 117.297 248.876 116.973 249.416C116.661 249.944 116.193 250.376 115.569 250.712C114.945 251.048 114.159 251.216 113.211 251.216ZM121.669 251.216C120.949 251.216 120.349 251.084 119.869 250.82C119.389 250.544 119.029 250.184 118.789 249.74C118.549 249.284 118.429 248.798 118.429 248.282C118.429 247.658 118.585 247.13 118.897 246.698C119.221 246.254 119.671 245.918 120.247 245.69C120.823 245.462 121.495 245.348 122.263 245.348H124.621C124.621 244.736 124.549 244.226 124.405 243.818C124.261 243.41 124.027 243.104 123.703 242.9C123.379 242.696 122.947 242.594 122.407 242.594C121.867 242.594 121.405 242.732 121.021 243.008C120.637 243.272 120.397 243.668 120.301 244.196H118.753C118.825 243.572 119.035 243.05 119.383 242.63C119.731 242.198 120.169 241.874 120.697 241.658C121.237 241.43 121.807 241.316 122.407 241.316C123.259 241.316 123.961 241.472 124.513 241.784C125.065 242.084 125.473 242.51 125.737 243.062C126.001 243.602 126.133 244.244 126.133 244.988V251H124.783L124.693 249.38C124.573 249.632 124.417 249.872 124.225 250.1C124.045 250.316 123.829 250.508 123.577 250.676C123.325 250.844 123.037 250.976 122.713 251.072C122.401 251.168 122.053 251.216 121.669 251.216ZM121.885 249.938C122.281 249.938 122.647 249.848 122.983 249.668C123.319 249.488 123.607 249.248 123.847 248.948C124.099 248.636 124.291 248.288 124.423 247.904C124.555 247.52 124.621 247.118 124.621 246.698V246.518H122.389C121.825 246.518 121.363 246.59 121.003 246.734C120.655 246.878 120.403 247.082 120.247 247.346C120.091 247.598 120.013 247.886 120.013 248.21C120.013 248.558 120.085 248.864 120.229 249.128C120.373 249.38 120.583 249.578 120.859 249.722C121.147 249.866 121.489 249.938 121.885 249.938ZM127.732 251V241.532H129.1L129.172 243.026C129.448 242.486 129.844 242.066 130.36 241.766C130.888 241.466 131.494 241.316 132.178 241.316C132.874 241.316 133.48 241.448 133.996 241.712C134.512 241.976 134.914 242.378 135.202 242.918C135.49 243.458 135.634 244.142 135.634 244.97V251H134.122V245.132C134.122 244.292 133.912 243.662 133.492 243.242C133.084 242.822 132.532 242.612 131.836 242.612C131.368 242.612 130.936 242.726 130.54 242.954C130.144 243.17 129.826 243.494 129.586 243.926C129.358 244.358 129.244 244.886 129.244 245.51V251H127.732ZM141.144 251.216C140.304 251.216 139.56 251 138.912 250.568C138.264 250.136 137.76 249.548 137.4 248.804C137.04 248.048 136.86 247.196 136.86 246.248C136.86 245.288 137.04 244.442 137.4 243.71C137.76 242.966 138.264 242.384 138.912 241.964C139.56 241.532 140.31 241.316 141.162 241.316C141.906 241.316 142.542 241.466 143.07 241.766C143.61 242.066 144.036 242.486 144.348 243.026V238.04H145.86V251H144.492L144.366 249.488C144.186 249.788 143.946 250.07 143.646 250.334C143.358 250.598 143.004 250.814 142.584 250.982C142.176 251.138 141.696 251.216 141.144 251.216ZM141.342 249.902C141.942 249.902 142.464 249.758 142.908 249.47C143.352 249.17 143.694 248.75 143.934 248.21C144.174 247.658 144.294 247.01 144.294 246.266C144.294 245.522 144.174 244.88 143.934 244.34C143.694 243.788 143.352 243.368 142.908 243.08C142.464 242.78 141.942 242.63 141.342 242.63C140.778 242.63 140.274 242.78 139.83 243.08C139.386 243.368 139.038 243.788 138.786 244.34C138.534 244.88 138.408 245.522 138.408 246.266C138.408 247.01 138.534 247.658 138.786 248.21C139.038 248.75 139.386 249.17 139.83 249.47C140.274 249.758 140.778 249.902 141.342 249.902ZM152.233 251.216C151.657 251.216 151.159 251.132 150.739 250.964C150.331 250.784 149.983 250.562 149.695 250.298C149.419 250.034 149.191 249.776 149.011 249.524L148.885 251H147.517V238.04H149.029V243.026C149.317 242.462 149.743 242.036 150.307 241.748C150.871 241.46 151.501 241.316 152.197 241.316C153.061 241.316 153.817 241.526 154.465 241.946C155.113 242.366 155.617 242.948 155.977 243.692C156.337 244.424 156.517 245.27 156.517 246.23C156.517 247.178 156.337 248.03 155.977 248.786C155.617 249.542 155.113 250.136 154.465 250.568C153.829 251 153.085 251.216 152.233 251.216ZM152.035 249.902C152.599 249.902 153.097 249.758 153.529 249.47C153.973 249.17 154.321 248.75 154.573 248.21C154.837 247.658 154.969 247.01 154.969 246.266C154.969 245.522 154.837 244.88 154.573 244.34C154.321 243.788 153.973 243.368 153.529 243.08C153.097 242.78 152.599 242.63 152.035 242.63C151.435 242.63 150.913 242.78 150.469 243.08C150.025 243.368 149.683 243.788 149.443 244.34C149.203 244.88 149.083 245.522 149.083 246.266C149.083 247.01 149.203 247.658 149.443 248.21C149.683 248.75 150.025 249.17 150.469 249.47C150.913 249.758 151.435 249.902 152.035 249.902ZM161.883 251.216C161.007 251.216 160.233 251.012 159.561 250.604C158.889 250.196 158.367 249.62 157.995 248.876C157.623 248.132 157.437 247.262 157.437 246.266C157.437 245.258 157.623 244.388 157.995 243.656C158.379 242.912 158.907 242.336 159.579 241.928C160.263 241.52 161.043 241.316 161.919 241.316C162.807 241.316 163.581 241.52 164.241 241.928C164.913 242.336 165.435 242.912 165.807 243.656C166.179 244.388 166.365 245.258 166.365 246.266C166.365 247.262 166.173 248.132 165.789 248.876C165.417 249.62 164.895 250.196 164.223 250.604C163.551 251.012 162.771 251.216 161.883 251.216ZM161.883 249.92C162.435 249.92 162.933 249.788 163.377 249.524C163.821 249.248 164.169 248.84 164.421 248.3C164.685 247.748 164.817 247.07 164.817 246.266C164.817 245.45 164.691 244.772 164.439 244.232C164.187 243.692 163.839 243.29 163.395 243.026C162.963 242.75 162.471 242.612 161.919 242.612C161.379 242.612 160.887 242.75 160.443 243.026C159.999 243.29 159.645 243.692 159.381 244.232C159.117 244.772 158.985 245.45 158.985 246.266C158.985 247.07 159.111 247.748 159.363 248.3C159.627 248.84 159.975 249.248 160.407 249.524C160.851 249.788 161.343 249.92 161.883 249.92ZM166.422 251L169.446 246.248L166.422 241.532H168.078L170.418 245.294L172.776 241.532H174.414L171.39 246.248L174.414 251H172.776L170.418 247.148L168.096 251H166.422ZM179.144 254.96V241.532H180.512L180.638 243.008C180.83 242.696 181.07 242.414 181.358 242.162C181.658 241.91 182.012 241.706 182.42 241.55C182.84 241.394 183.32 241.316 183.86 241.316C184.712 241.316 185.456 241.532 186.092 241.964C186.74 242.396 187.244 242.984 187.604 243.728C187.964 244.472 188.144 245.324 188.144 246.284C188.144 247.232 187.964 248.078 187.604 248.822C187.244 249.566 186.74 250.154 186.092 250.586C185.444 251.006 184.694 251.216 183.842 251.216C183.11 251.216 182.468 251.066 181.916 250.766C181.364 250.466 180.944 250.046 180.656 249.506V254.96H179.144ZM183.662 249.902C184.226 249.902 184.724 249.758 185.156 249.47C185.6 249.17 185.948 248.75 186.2 248.21C186.464 247.658 186.596 247.01 186.596 246.266C186.596 245.522 186.464 244.88 186.2 244.34C185.948 243.788 185.6 243.368 185.156 243.08C184.724 242.78 184.226 242.63 183.662 242.63C183.062 242.63 182.54 242.78 182.096 243.08C181.652 243.368 181.31 243.788 181.07 244.34C180.83 244.88 180.71 245.522 180.71 246.266C180.71 247.01 180.83 247.658 181.07 248.21C181.31 248.75 181.652 249.17 182.096 249.47C182.54 249.758 183.062 249.902 183.662 249.902ZM189.441 251V238.04H190.953V243.062C191.265 242.522 191.691 242.096 192.231 241.784C192.771 241.472 193.353 241.316 193.977 241.316C194.709 241.316 195.327 241.454 195.831 241.73C196.347 241.994 196.737 242.402 197.001 242.954C197.277 243.506 197.415 244.208 197.415 245.06V251H195.921V245.222C195.921 244.358 195.717 243.71 195.309 243.278C194.901 242.834 194.349 242.612 193.653 242.612C193.161 242.612 192.711 242.732 192.303 242.972C191.895 243.2 191.565 243.542 191.313 243.998C191.073 244.454 190.953 245.006 190.953 245.654V251H189.441ZM201.97 251.216C201.25 251.216 200.65 251.084 200.17 250.82C199.69 250.544 199.33 250.184 199.09 249.74C198.85 249.284 198.73 248.798 198.73 248.282C198.73 247.658 198.886 247.13 199.198 246.698C199.522 246.254 199.972 245.918 200.548 245.69C201.124 245.462 201.796 245.348 202.564 245.348H204.922C204.922 244.736 204.85 244.226 204.706 243.818C204.562 243.41 204.328 243.104 204.004 242.9C203.68 242.696 203.248 242.594 202.708 242.594C202.168 242.594 201.706 242.732 201.322 243.008C200.938 243.272 200.698 243.668 200.602 244.196H199.054C199.126 243.572 199.336 243.05 199.684 242.63C200.032 242.198 200.47 241.874 200.998 241.658C201.538 241.43 202.108 241.316 202.708 241.316C203.56 241.316 204.262 241.472 204.814 241.784C205.366 242.084 205.774 242.51 206.038 243.062C206.302 243.602 206.434 244.244 206.434 244.988V251H205.084L204.994 249.38C204.874 249.632 204.718 249.872 204.526 250.1C204.346 250.316 204.13 250.508 203.878 250.676C203.626 250.844 203.338 250.976 203.014 251.072C202.702 251.168 202.354 251.216 201.97 251.216ZM202.186 249.938C202.582 249.938 202.948 249.848 203.284 249.668C203.62 249.488 203.908 249.248 204.148 248.948C204.4 248.636 204.592 248.288 204.724 247.904C204.856 247.52 204.922 247.118 204.922 246.698V246.518H202.69C202.126 246.518 201.664 246.59 201.304 246.734C200.956 246.878 200.704 247.082 200.548 247.346C200.392 247.598 200.314 247.886 200.314 248.21C200.314 248.558 200.386 248.864 200.53 249.128C200.674 249.38 200.884 249.578 201.16 249.722C201.448 249.866 201.79 249.938 202.186 249.938ZM211.452 251.216C210.6 251.216 209.892 251.09 209.328 250.838C208.776 250.574 208.356 250.214 208.068 249.758C207.78 249.29 207.606 248.75 207.546 248.138H209.094C209.142 248.462 209.25 248.762 209.418 249.038C209.598 249.302 209.856 249.518 210.192 249.686C210.528 249.854 210.954 249.938 211.47 249.938C211.878 249.938 212.226 249.878 212.514 249.758C212.802 249.626 213.018 249.446 213.162 249.218C213.318 248.99 213.396 248.726 213.396 248.426C213.396 248.03 213.306 247.724 213.126 247.508C212.958 247.28 212.706 247.112 212.37 247.004C212.046 246.884 211.638 246.794 211.146 246.734C210.618 246.662 210.15 246.56 209.742 246.428C209.334 246.296 208.986 246.122 208.698 245.906C208.422 245.69 208.212 245.42 208.068 245.096C207.924 244.772 207.852 244.388 207.852 243.944C207.852 243.428 207.99 242.972 208.266 242.576C208.542 242.18 208.932 241.874 209.436 241.658C209.952 241.43 210.558 241.316 211.254 241.316C212.274 241.316 213.078 241.55 213.666 242.018C214.266 242.486 214.62 243.152 214.728 244.016H213.234C213.174 243.572 212.97 243.224 212.622 242.972C212.274 242.72 211.812 242.594 211.236 242.594C210.624 242.594 210.162 242.708 209.85 242.936C209.538 243.164 209.382 243.464 209.382 243.836C209.382 244.112 209.448 244.364 209.58 244.592C209.724 244.808 209.964 244.994 210.3 245.15C210.636 245.294 211.086 245.402 211.65 245.474C212.358 245.558 212.958 245.696 213.45 245.888C213.942 246.068 214.314 246.35 214.566 246.734C214.83 247.118 214.956 247.64 214.944 248.3C214.944 248.924 214.794 249.452 214.494 249.884C214.206 250.316 213.798 250.646 213.27 250.874C212.754 251.102 212.148 251.216 211.452 251.216ZM220.214 251.216C219.374 251.216 218.63 251.012 217.982 250.604C217.334 250.196 216.824 249.62 216.452 248.876C216.092 248.132 215.912 247.262 215.912 246.266C215.912 245.27 216.092 244.4 216.452 243.656C216.824 242.912 217.334 242.336 217.982 241.928C218.642 241.52 219.398 241.316 220.25 241.316C221.162 241.316 221.924 241.52 222.536 241.928C223.148 242.336 223.61 242.882 223.922 243.566C224.234 244.25 224.39 245 224.39 245.816C224.39 245.936 224.39 246.056 224.39 246.176C224.39 246.296 224.384 246.44 224.372 246.608H217.046V245.438H222.914C222.89 244.514 222.62 243.812 222.104 243.332C221.6 242.84 220.97 242.594 220.214 242.594C219.71 242.594 219.242 242.72 218.81 242.972C218.39 243.212 218.048 243.572 217.784 244.052C217.52 244.532 217.388 245.132 217.388 245.852V246.356C217.388 247.148 217.52 247.814 217.784 248.354C218.048 248.882 218.39 249.278 218.81 249.542C219.242 249.806 219.71 249.938 220.214 249.938C220.886 249.938 221.414 249.812 221.798 249.56C222.182 249.296 222.464 248.924 222.644 248.444H224.138C223.994 248.972 223.742 249.446 223.382 249.866C223.034 250.286 222.59 250.616 222.05 250.856C221.522 251.096 220.91 251.216 220.214 251.216Z" fill="#C7C7C7"/>
<path d="M211.471 185C211.471 176.753 211.471 168.506 211.471 160.259C211.471 152.982 210.303 146.714 215.113 140.836C217.478 137.945 220.666 136.437 224.448 137.194C227.886 137.881 227.738 142.965 227.57 145.489C227.339 148.961 223.738 153.417 221.356 155.865C218.426 158.877 215.409 161.672 211.991 164.074C208.329 166.647 199.493 170.115 195.863 166.271C193.157 163.406 197.47 161.588 199.794 161.588C200.632 161.588 203.62 161.14 204.187 161.848C204.483 162.218 207.065 163.488 207.598 163.64C210.394 164.439 209.482 169.187 209.39 171.589C209.24 175.483 201.718 181.065 198.464 181.878" stroke="white" stroke-width="3.15369" stroke-linecap="round"/>
<rect x="389" y="0.5" width="332.5" height="272" rx="7.5" stroke="#606060"/>
<path d="M511.187 251V238.4H518.855V239.642H512.699V244.07H517.937V245.294H512.699V251H511.187ZM520.026 251V241.532H521.538V251H520.026ZM520.782 239.732C520.482 239.732 520.23 239.636 520.026 239.444C519.834 239.24 519.738 238.988 519.738 238.688C519.738 238.388 519.834 238.148 520.026 237.968C520.23 237.776 520.482 237.68 520.782 237.68C521.07 237.68 521.316 237.776 521.52 237.968C521.724 238.148 521.826 238.388 521.826 238.688C521.826 238.988 521.724 239.24 521.52 239.444C521.316 239.636 521.07 239.732 520.782 239.732ZM523.324 251V241.532H524.692L524.764 243.026C525.04 242.486 525.436 242.066 525.952 241.766C526.48 241.466 527.086 241.316 527.77 241.316C528.466 241.316 529.072 241.448 529.588 241.712C530.104 241.976 530.506 242.378 530.794 242.918C531.082 243.458 531.226 244.142 531.226 244.97V251H529.714V245.132C529.714 244.292 529.504 243.662 529.084 243.242C528.676 242.822 528.124 242.612 527.428 242.612C526.96 242.612 526.528 242.726 526.132 242.954C525.736 243.17 525.418 243.494 525.178 243.926C524.95 244.358 524.836 244.886 524.836 245.51V251H523.324ZM535.782 251.216C535.062 251.216 534.462 251.084 533.982 250.82C533.502 250.544 533.142 250.184 532.902 249.74C532.662 249.284 532.542 248.798 532.542 248.282C532.542 247.658 532.698 247.13 533.01 246.698C533.334 246.254 533.784 245.918 534.36 245.69C534.936 245.462 535.608 245.348 536.376 245.348H538.734C538.734 244.736 538.662 244.226 538.518 243.818C538.374 243.41 538.14 243.104 537.816 242.9C537.492 242.696 537.06 242.594 536.52 242.594C535.98 242.594 535.518 242.732 535.134 243.008C534.75 243.272 534.51 243.668 534.414 244.196H532.866C532.938 243.572 533.148 243.05 533.496 242.63C533.844 242.198 534.282 241.874 534.81 241.658C535.35 241.43 535.92 241.316 536.52 241.316C537.372 241.316 538.074 241.472 538.626 241.784C539.178 242.084 539.586 242.51 539.85 243.062C540.114 243.602 540.246 244.244 540.246 244.988V251H538.896L538.806 249.38C538.686 249.632 538.53 249.872 538.338 250.1C538.158 250.316 537.942 250.508 537.69 250.676C537.438 250.844 537.15 250.976 536.826 251.072C536.514 251.168 536.166 251.216 535.782 251.216ZM535.998 249.938C536.394 249.938 536.76 249.848 537.096 249.668C537.432 249.488 537.72 249.248 537.96 248.948C538.212 248.636 538.404 248.288 538.536 247.904C538.668 247.52 538.734 247.118 538.734 246.698V246.518H536.502C535.938 246.518 535.476 246.59 535.116 246.734C534.768 246.878 534.516 247.082 534.36 247.346C534.204 247.598 534.126 247.886 534.126 248.21C534.126 248.558 534.198 248.864 534.342 249.128C534.486 249.38 534.696 249.578 534.972 249.722C535.26 249.866 535.602 249.938 535.998 249.938ZM541.844 251V238.04H543.356V251H541.844ZM552.808 251L548.074 238.4H549.712L553.69 249.398L557.704 238.4H559.306L554.572 251H552.808ZM562.843 251.216C562.003 251.216 561.259 251.012 560.611 250.604C559.963 250.196 559.453 249.62 559.081 248.876C558.721 248.132 558.541 247.262 558.541 246.266C558.541 245.27 558.721 244.4 559.081 243.656C559.453 242.912 559.963 242.336 560.611 241.928C561.271 241.52 562.027 241.316 562.879 241.316C563.791 241.316 564.553 241.52 565.165 241.928C565.777 242.336 566.239 242.882 566.551 243.566C566.863 244.25 567.019 245 567.019 245.816C567.019 245.936 567.019 246.056 567.019 246.176C567.019 246.296 567.013 246.44 567.001 246.608H559.675V245.438H565.543C565.519 244.514 565.249 243.812 564.733 243.332C564.229 242.84 563.599 242.594 562.843 242.594C562.339 242.594 561.871 242.72 561.439 242.972C561.019 243.212 560.677 243.572 560.413 244.052C560.149 244.532 560.017 245.132 560.017 245.852V246.356C560.017 247.148 560.149 247.814 560.413 248.354C560.677 248.882 561.019 249.278 561.439 249.542C561.871 249.806 562.339 249.938 562.843 249.938C563.515 249.938 564.043 249.812 564.427 249.56C564.811 249.296 565.093 248.924 565.273 248.444H566.767C566.623 248.972 566.371 249.446 566.011 249.866C565.663 250.286 565.219 250.616 564.679 250.856C564.151 251.096 563.539 251.216 562.843 251.216ZM572.301 251.216C571.437 251.216 570.669 251.012 569.997 250.604C569.325 250.184 568.797 249.602 568.413 248.858C568.029 248.114 567.837 247.25 567.837 246.266C567.837 245.27 568.029 244.406 568.413 243.674C568.797 242.93 569.325 242.354 569.997 241.946C570.669 241.526 571.437 241.316 572.301 241.316C573.381 241.316 574.281 241.604 575.001 242.18C575.733 242.756 576.201 243.53 576.405 244.502H574.857C574.725 243.902 574.419 243.44 573.939 243.116C573.471 242.78 572.919 242.612 572.283 242.612C571.731 242.612 571.233 242.75 570.789 243.026C570.357 243.302 570.015 243.71 569.763 244.25C569.511 244.79 569.385 245.462 569.385 246.266C569.385 246.866 569.457 247.4 569.601 247.868C569.745 248.324 569.943 248.708 570.195 249.02C570.459 249.32 570.765 249.548 571.113 249.704C571.473 249.86 571.863 249.938 572.283 249.938C572.715 249.938 573.105 249.866 573.453 249.722C573.813 249.566 574.113 249.344 574.353 249.056C574.605 248.768 574.773 248.426 574.857 248.03H576.405C576.213 248.978 575.745 249.746 575.001 250.334C574.269 250.922 573.369 251.216 572.301 251.216ZM581.129 251C580.589 251 580.121 250.916 579.725 250.748C579.329 250.58 579.023 250.298 578.807 249.902C578.603 249.494 578.501 248.948 578.501 248.264V242.81H576.845V241.532H578.501L578.699 239.174H580.013V241.532H582.695V242.81H580.013V248.264C580.013 248.828 580.127 249.212 580.355 249.416C580.583 249.608 580.985 249.704 581.561 249.704H582.659V251H581.129ZM587.692 251.216C586.816 251.216 586.042 251.012 585.37 250.604C584.698 250.196 584.176 249.62 583.804 248.876C583.432 248.132 583.246 247.262 583.246 246.266C583.246 245.258 583.432 244.388 583.804 243.656C584.188 242.912 584.716 242.336 585.388 241.928C586.072 241.52 586.852 241.316 587.728 241.316C588.616 241.316 589.39 241.52 590.05 241.928C590.722 242.336 591.244 242.912 591.616 243.656C591.988 244.388 592.174 245.258 592.174 246.266C592.174 247.262 591.982 248.132 591.598 248.876C591.226 249.62 590.704 250.196 590.032 250.604C589.36 251.012 588.58 251.216 587.692 251.216ZM587.692 249.92C588.244 249.92 588.742 249.788 589.186 249.524C589.63 249.248 589.978 248.84 590.23 248.3C590.494 247.748 590.626 247.07 590.626 246.266C590.626 245.45 590.5 244.772 590.248 244.232C589.996 243.692 589.648 243.29 589.204 243.026C588.772 242.75 588.28 242.612 587.728 242.612C587.188 242.612 586.696 242.75 586.252 243.026C585.808 243.29 585.454 243.692 585.19 244.232C584.926 244.772 584.794 245.45 584.794 246.266C584.794 247.07 584.92 247.748 585.172 248.3C585.436 248.84 585.784 249.248 586.216 249.524C586.66 249.788 587.152 249.92 587.692 249.92ZM593.464 251V241.532H594.832L594.94 243.26C595.156 242.828 595.438 242.468 595.786 242.18C596.134 241.892 596.554 241.676 597.046 241.532C597.55 241.388 598.114 241.316 598.738 241.316V242.9H597.802C597.442 242.9 597.094 242.948 596.758 243.044C596.422 243.14 596.116 243.296 595.84 243.512C595.576 243.728 595.366 244.022 595.21 244.394C595.054 244.766 594.976 245.234 594.976 245.798V251H593.464Z" fill="#C7C7C7"/>
<path fill-rule="evenodd" clip-rule="evenodd" d="M567.797 56.2815C562.69 62.2617 559.795 71.8781 559.795 83.3053V103.006C560.128 102.836 560.461 102.666 560.793 102.497C561.32 102.229 561.845 101.962 562.37 101.696C565.831 99.9379 569.264 98.1945 572.747 96.2496C580.685 91.8172 588.585 86.4955 595.959 78.5469C603.315 70.6171 603.75 63.8207 602.216 59.2701C600.539 54.2967 596.137 50.6688 591.536 49.7558C579.87 47.4409 572.522 50.7485 567.797 56.2815ZM545.738 97.2496V83.3053C545.738 69.9501 549.057 56.6057 557.093 47.1955C565.511 37.3381 578.233 32.8257 594.28 36.0099C603.747 37.8885 612.236 45.0007 615.541 54.8051C618.988 65.0323 616.494 77.0512 606.279 88.0635C597.566 97.4556 588.318 103.619 579.616 108.478C575.872 110.569 572.173 112.447 568.727 114.196C568.207 114.46 567.693 114.721 567.185 114.98C564.488 116.353 561.968 117.654 559.599 118.977C559.572 119.808 559.547 120.767 559.532 121.837C559.472 125.953 559.545 131.674 560.074 138.082C561.155 151.178 564.059 166.007 570.686 176.172C572.802 179.417 571.878 183.758 568.624 185.867C565.369 187.976 561.016 187.056 558.9 183.811C550.683 171.207 547.479 154.45 546.227 141.087C540.001 147.311 532.302 152.537 524.84 155.637C521.256 157.125 517.141 155.436 515.648 151.863C514.155 148.291 515.85 144.188 519.433 142.699C525.49 140.183 532.143 135.598 537.311 130.122C537.683 129.728 538.043 129.334 538.391 128.94C535.445 129.784 532.333 130.499 529.18 131.002C523.361 131.929 517.007 132.195 511.159 130.915C505.228 129.618 499.346 126.6 495.596 120.65C491.312 113.851 490.919 106.325 494.08 99.9182C497.141 93.7155 503.121 89.357 510.146 87.5085C520.731 84.7238 533.586 87.4204 545.738 97.2496ZM541.977 112.85C530.759 100.98 520.005 99.4102 513.733 101.06C509.954 102.055 507.664 104.138 506.694 106.105C505.824 107.868 505.637 110.239 507.499 113.193C508.677 115.063 510.734 116.473 514.171 117.225C517.692 117.995 522.135 117.931 526.961 117.162C531.729 116.402 536.488 115.016 540.458 113.467C540.988 113.26 541.495 113.054 541.977 112.85Z" fill="white"/>
</svg>
