<svg width="722" height="332" viewBox="0 0 722 332" fill="none" xmlns="http://www.w3.org/2000/svg">
<rect x="0.5" y="0.5" width="721" height="331" rx="7.5" stroke="#606060"/>
<path d="M59.2914 151L90.2514 67H100.931L131.771 151H121.091L95.5314 79.6L69.8514 151H59.2914ZM73.4514 129.4L76.3314 121.24H114.371L117.251 129.4H73.4514ZM161.115 152.44C156.235 152.44 152.155 151.6 148.875 149.92C145.595 148.16 143.155 145.88 141.555 143.08C139.955 140.2 139.155 137.08 139.155 133.72C139.155 129.64 140.195 126.2 142.275 123.4C144.435 120.52 147.435 118.36 151.275 116.92C155.195 115.4 159.795 114.64 165.075 114.64H181.035C181.035 110.88 180.435 107.76 179.235 105.28C178.115 102.72 176.435 100.8 174.195 99.52C172.035 98.24 169.315 97.6 166.035 97.6C162.195 97.6 158.875 98.56 156.075 100.48C153.275 102.4 151.555 105.24 150.915 109H140.595C141.075 104.68 142.515 101.08 144.915 98.2C147.395 95.24 150.515 93 154.275 91.48C158.035 89.88 161.955 89.08 166.035 89.08C171.635 89.08 176.275 90.12 179.955 92.2C183.715 94.2 186.515 97.04 188.355 100.72C190.195 104.32 191.115 108.6 191.115 113.56V151H182.115L181.515 140.32C180.715 142 179.675 143.6 178.395 145.12C177.195 146.56 175.755 147.84 174.075 148.96C172.395 150 170.475 150.84 168.315 151.48C166.235 152.12 163.835 152.44 161.115 152.44ZM162.675 143.92C165.475 143.92 167.995 143.36 170.235 142.24C172.555 141.04 174.515 139.44 176.115 137.44C177.715 135.36 178.915 133.08 179.715 130.6C180.595 128.12 181.035 125.52 181.035 122.8V122.44H165.915C161.995 122.44 158.835 122.92 156.435 123.88C154.035 124.76 152.315 126.04 151.275 127.72C150.235 129.32 149.715 131.16 149.715 133.24C149.715 135.4 150.195 137.28 151.155 138.88C152.195 140.48 153.675 141.72 155.595 142.6C157.595 143.48 159.955 143.92 162.675 143.92Z" fill="white"/>
<path d="M61.372 234V208.8H69.112C72.064 208.8 74.5 209.316 76.42 210.348C78.34 211.356 79.756 212.808 80.668 214.704C81.604 216.576 82.072 218.832 82.072 221.472C82.072 224.064 81.604 226.296 80.668 228.168C79.756 230.04 78.34 231.48 76.42 232.488C74.5 233.496 72.064 234 69.112 234H61.372ZM64.396 231.48H69.04C71.488 231.48 73.432 231.084 74.872 230.292C76.336 229.476 77.38 228.324 78.004 226.836C78.628 225.324 78.94 223.536 78.94 221.472C78.94 219.36 78.628 217.548 78.004 216.036C77.38 214.524 76.336 213.36 74.872 212.544C73.432 211.728 71.488 211.32 69.04 211.32H64.396V231.48ZM85.3134 234V208.8H89.5614L97.8774 227.484H97.9854L106.265 208.8H110.477V234H107.453V213.588H107.345L99.7854 230.4H96.0414L88.4454 213.588H88.3374V234H85.3134ZM130.333 234.432C128.485 234.432 126.877 234.096 125.509 233.424C124.141 232.752 123.085 231.816 122.341 230.616C121.597 229.416 121.225 228.024 121.225 226.44H124.393C124.393 227.424 124.609 228.336 125.041 229.176C125.473 229.992 126.133 230.652 127.021 231.156C127.909 231.636 129.025 231.876 130.369 231.876C131.449 231.876 132.397 231.72 133.213 231.408C134.029 231.072 134.665 230.592 135.121 229.968C135.577 229.32 135.805 228.54 135.805 227.628C135.805 226.692 135.589 225.924 135.157 225.324C134.749 224.7 134.173 224.184 133.429 223.776C132.709 223.368 131.905 223.02 131.017 222.732C130.129 222.42 129.217 222.108 128.281 221.796C126.145 221.052 124.573 220.152 123.565 219.096C122.581 218.016 122.089 216.672 122.089 215.064C122.089 213.768 122.401 212.616 123.025 211.608C123.673 210.6 124.585 209.808 125.761 209.232C126.961 208.656 128.377 208.368 130.009 208.368C131.617 208.368 133.009 208.668 134.185 209.268C135.385 209.868 136.321 210.696 136.993 211.752C137.665 212.784 138.001 213.984 138.001 215.352H134.833C134.833 214.512 134.641 213.756 134.257 213.084C133.873 212.412 133.309 211.872 132.565 211.464C131.845 211.056 130.921 210.852 129.793 210.852C128.905 210.852 128.101 210.996 127.381 211.284C126.685 211.548 126.133 211.968 125.725 212.544C125.341 213.12 125.149 213.864 125.149 214.776C125.149 215.544 125.305 216.18 125.617 216.684C125.929 217.188 126.397 217.632 127.021 218.016C127.645 218.376 128.401 218.724 129.289 219.06C130.201 219.396 131.233 219.768 132.385 220.176C133.609 220.608 134.701 221.124 135.661 221.724C136.645 222.3 137.413 223.032 137.965 223.92C138.517 224.808 138.793 225.948 138.793 227.34C138.793 228.54 138.481 229.692 137.857 230.796C137.233 231.876 136.297 232.752 135.049 233.424C133.801 234.096 132.229 234.432 130.333 234.432ZM147.607 234.432C146.167 234.432 144.955 234.18 143.971 233.676C143.011 233.172 142.291 232.5 141.811 231.66C141.355 230.82 141.127 229.908 141.127 228.924C141.127 227.7 141.439 226.668 142.063 225.828C142.711 224.988 143.611 224.352 144.763 223.92C145.939 223.464 147.319 223.236 148.903 223.236H153.727C153.727 222.084 153.547 221.124 153.187 220.356C152.827 219.588 152.311 219.024 151.639 218.664C150.967 218.28 150.163 218.088 149.227 218.088C148.051 218.088 147.031 218.388 146.167 218.988C145.303 219.588 144.775 220.5 144.583 221.724H141.487C141.631 220.428 142.063 219.336 142.783 218.448C143.503 217.56 144.415 216.888 145.519 216.432C146.647 215.952 147.883 215.712 149.227 215.712C150.931 215.712 152.335 216.024 153.439 216.648C154.567 217.248 155.395 218.1 155.923 219.204C156.475 220.284 156.751 221.556 156.751 223.02V234H154.195L153.943 230.904H153.835C153.523 231.456 153.151 231.948 152.719 232.38C152.287 232.812 151.807 233.184 151.279 233.496C150.775 233.784 150.211 234.012 149.587 234.18C148.963 234.348 148.303 234.432 147.607 234.432ZM148.111 231.876C149.023 231.876 149.815 231.708 150.487 231.372C151.183 231.012 151.771 230.532 152.251 229.932C152.731 229.332 153.091 228.66 153.331 227.916C153.595 227.148 153.727 226.368 153.727 225.576H149.155C147.979 225.576 147.031 225.72 146.311 226.008C145.591 226.272 145.075 226.644 144.763 227.124C144.451 227.604 144.295 228.156 144.295 228.78C144.295 229.404 144.439 229.956 144.727 230.436C145.039 230.892 145.483 231.252 146.059 231.516C146.635 231.756 147.319 231.876 148.111 231.876ZM159.911 234V216.144H162.611L162.863 219.06H162.971C163.595 218.028 164.411 217.212 165.419 216.612C166.451 216.012 167.675 215.712 169.091 215.712C170.459 215.712 171.659 216 172.691 216.576C173.723 217.128 174.515 217.992 175.067 219.168C175.643 220.32 175.931 221.784 175.931 223.56V234H172.907V223.884C172.907 222.036 172.511 220.644 171.719 219.708C170.927 218.772 169.787 218.304 168.299 218.304C167.267 218.304 166.343 218.556 165.527 219.06C164.735 219.564 164.099 220.296 163.619 221.256C163.163 222.192 162.935 223.356 162.935 224.748V234H159.911ZM186.018 234.432C184.602 234.432 183.33 234.192 182.202 233.712C181.074 233.208 180.162 232.512 179.466 231.624C178.794 230.712 178.374 229.644 178.206 228.42H181.302C181.446 229.02 181.698 229.596 182.058 230.148C182.418 230.7 182.922 231.156 183.57 231.516C184.242 231.852 185.07 232.02 186.054 232.02C186.918 232.02 187.626 231.9 188.178 231.66C188.73 231.396 189.138 231.06 189.402 230.652C189.666 230.22 189.798 229.764 189.798 229.284C189.798 228.636 189.618 228.12 189.258 227.736C188.922 227.352 188.406 227.028 187.71 226.764C187.038 226.5 186.234 226.248 185.298 226.008C184.578 225.816 183.846 225.6 183.102 225.36C182.358 225.096 181.674 224.784 181.05 224.424C180.45 224.064 179.958 223.596 179.574 223.02C179.214 222.444 179.034 221.724 179.034 220.86C179.034 219.9 179.298 219.036 179.826 218.268C180.354 217.476 181.098 216.852 182.058 216.396C183.042 215.94 184.194 215.712 185.514 215.712C187.41 215.712 188.958 216.18 190.158 217.116C191.382 218.052 192.09 219.408 192.282 221.184H189.294C189.198 220.2 188.814 219.444 188.142 218.916C187.494 218.364 186.606 218.088 185.478 218.088C184.374 218.088 183.522 218.328 182.922 218.808C182.346 219.288 182.058 219.888 182.058 220.608C182.058 221.088 182.202 221.496 182.49 221.832C182.802 222.144 183.27 222.42 183.894 222.66C184.542 222.876 185.346 223.128 186.306 223.416C187.41 223.728 188.454 224.076 189.438 224.46C190.446 224.844 191.262 225.372 191.886 226.044C192.534 226.716 192.858 227.64 192.858 228.816C192.882 229.896 192.606 230.868 192.03 231.732C191.478 232.572 190.686 233.232 189.654 233.712C188.646 234.192 187.434 234.432 186.018 234.432Z" fill="#E3E3E3" fill-opacity="0.9"/>
<path d="M39.628 286V270.6H44.688C45.8907 270.6 46.8807 270.798 47.658 271.194C48.4353 271.59 49.0073 272.125 49.374 272.8C49.7553 273.475 49.946 274.237 49.946 275.088C49.946 275.924 49.7627 276.687 49.396 277.376C49.0293 278.051 48.4573 278.593 47.68 279.004C46.9027 279.4 45.9053 279.598 44.688 279.598H41.476V286H39.628ZM41.476 278.036H44.644C45.8613 278.036 46.734 277.772 47.262 277.244C47.79 276.701 48.054 275.983 48.054 275.088C48.054 274.149 47.79 273.423 47.262 272.91C46.734 272.397 45.8613 272.14 44.644 272.14H41.476V278.036ZM52.2582 286V275.044H53.9302L54.0842 277.156C54.3189 276.657 54.6269 276.232 55.0082 275.88C55.3896 275.528 55.8442 275.257 56.3722 275.066C56.9149 274.875 57.5236 274.78 58.1982 274.78V276.716H57.6702C57.1862 276.716 56.7242 276.782 56.2842 276.914C55.8589 277.031 55.4776 277.229 55.1402 277.508C54.8176 277.787 54.5609 278.168 54.3702 278.652C54.1942 279.136 54.1062 279.737 54.1062 280.456V286H52.2582ZM60.4699 286V275.044H62.3179V286H60.4699ZM61.3939 272.646C61.0272 272.646 60.7192 272.529 60.4699 272.294C60.2352 272.045 60.1179 271.737 60.1179 271.37C60.1179 271.003 60.2352 270.71 60.4699 270.49C60.7192 270.255 61.0272 270.138 61.3939 270.138C61.7459 270.138 62.0466 270.255 62.2959 270.49C62.5452 270.71 62.6699 271.003 62.6699 271.37C62.6699 271.737 62.5452 272.045 62.2959 272.294C62.0466 272.529 61.7459 272.646 61.3939 272.646ZM65.5356 286V275.044H67.2076L67.3396 276.628C67.6916 276.056 68.1609 275.609 68.7476 275.286C69.3342 274.949 69.9942 274.78 70.7276 274.78C71.2996 274.78 71.8202 274.861 72.2896 275.022C72.7589 275.169 73.1696 275.403 73.5216 275.726C73.8736 276.034 74.1596 276.43 74.3796 276.914C74.7609 276.239 75.2889 275.719 75.9636 275.352C76.6382 274.971 77.3569 274.78 78.1196 274.78C78.9849 274.78 79.7402 274.956 80.3856 275.308C81.0309 275.645 81.5296 276.173 81.8816 276.892C82.2336 277.596 82.4096 278.491 82.4096 279.576V286H80.5836V279.774C80.5836 278.645 80.3562 277.794 79.9016 277.222C79.4469 276.65 78.7942 276.364 77.9436 276.364C77.3569 276.364 76.8289 276.518 76.3596 276.826C75.9049 277.134 75.5456 277.581 75.2816 278.168C75.0176 278.74 74.8856 279.451 74.8856 280.302V286H73.0376V279.774C73.0376 278.645 72.8102 277.794 72.3556 277.222C71.9009 276.65 71.2556 276.364 70.4196 276.364C69.8476 276.364 69.3269 276.518 68.8576 276.826C68.4029 277.134 68.0436 277.581 67.7796 278.168C67.5156 278.74 67.3836 279.451 67.3836 280.302V286H65.5356ZM88.8238 286.264C87.9144 286.264 87.1591 286.11 86.5578 285.802C85.9564 285.494 85.5091 285.083 85.2158 284.57C84.9224 284.057 84.7758 283.492 84.7758 282.876C84.7758 282.128 84.9664 281.497 85.3478 280.984C85.7438 280.471 86.2938 280.082 86.9978 279.818C87.7164 279.539 88.5598 279.4 89.5278 279.4H92.4758C92.4758 278.725 92.3658 278.168 92.1458 277.728C91.9258 277.273 91.6104 276.929 91.1998 276.694C90.7891 276.459 90.2978 276.342 89.7258 276.342C89.0071 276.342 88.3838 276.525 87.8558 276.892C87.3424 277.244 87.0271 277.765 86.9098 278.454H85.0178C85.1058 277.662 85.3698 276.995 85.8098 276.452C86.2644 275.909 86.8364 275.499 87.5258 275.22C88.2298 274.927 88.9631 274.78 89.7258 274.78C90.7378 274.78 91.5811 274.971 92.2558 275.352C92.9451 275.719 93.4584 276.239 93.7958 276.914C94.1478 277.574 94.3238 278.359 94.3238 279.268V286H92.6738L92.5638 284.042C92.4171 284.35 92.2264 284.643 91.9918 284.922C91.7718 285.186 91.5078 285.421 91.1998 285.626C90.9064 285.817 90.5618 285.971 90.1658 286.088C89.7698 286.205 89.3224 286.264 88.8238 286.264ZM89.1098 284.702C89.6378 284.702 90.1071 284.599 90.5178 284.394C90.9431 284.174 91.3024 283.881 91.5958 283.514C91.8891 283.147 92.1091 282.737 92.2558 282.282C92.4024 281.827 92.4758 281.358 92.4758 280.874V280.83H89.6818C88.9631 280.83 88.3838 280.918 87.9438 281.094C87.5038 281.255 87.1884 281.483 86.9978 281.776C86.8071 282.069 86.7118 282.407 86.7118 282.788C86.7118 283.184 86.7998 283.529 86.9758 283.822C87.1664 284.101 87.4378 284.321 87.7898 284.482C88.1564 284.629 88.5964 284.702 89.1098 284.702ZM97.1176 286V275.044H98.7896L98.9436 277.156C99.1783 276.657 99.4863 276.232 99.8676 275.88C100.249 275.528 100.704 275.257 101.232 275.066C101.774 274.875 102.383 274.78 103.058 274.78V276.716H102.53C102.046 276.716 101.584 276.782 101.144 276.914C100.718 277.031 100.337 277.229 99.9996 277.508C99.6769 277.787 99.4203 278.168 99.2296 278.652C99.0536 279.136 98.9656 279.737 98.9656 280.456V286H97.1176ZM106.319 290.84L109.047 284.768H108.409L104.053 275.044H106.055L109.685 283.404L113.491 275.044H115.405L108.255 290.84H106.319ZM126.896 286V272.118H122.298V270.6H133.342V272.118H128.744V286H126.896ZM135.581 290.84L138.309 284.768H137.671L133.315 275.044H135.317L138.947 283.404L142.753 275.044H144.667L137.517 290.84H135.581ZM146.618 290.84V275.044H148.29L148.466 276.848C148.7 276.496 149.001 276.166 149.368 275.858C149.734 275.535 150.174 275.279 150.688 275.088C151.201 274.883 151.795 274.78 152.47 274.78C153.555 274.78 154.494 275.037 155.286 275.55C156.092 276.049 156.723 276.731 157.178 277.596C157.632 278.461 157.86 279.444 157.86 280.544C157.86 281.644 157.632 282.627 157.178 283.492C156.723 284.357 156.092 285.039 155.286 285.538C154.479 286.022 153.533 286.264 152.448 286.264C151.553 286.264 150.761 286.081 150.072 285.714C149.382 285.347 148.847 284.834 148.466 284.174V290.84H146.618ZM152.25 284.658C152.968 284.658 153.606 284.489 154.164 284.152C154.736 283.8 155.176 283.316 155.484 282.7C155.806 282.084 155.968 281.358 155.968 280.522C155.968 279.701 155.806 278.982 155.484 278.366C155.176 277.75 154.736 277.266 154.164 276.914C153.606 276.562 152.968 276.386 152.25 276.386C151.516 276.386 150.864 276.562 150.292 276.914C149.734 277.266 149.294 277.75 148.972 278.366C148.664 278.982 148.51 279.701 148.51 280.522C148.51 281.358 148.664 282.084 148.972 282.7C149.294 283.316 149.734 283.8 150.292 284.152C150.864 284.489 151.516 284.658 152.25 284.658ZM165.338 286.264C164.297 286.264 163.373 286.029 162.566 285.56C161.759 285.076 161.121 284.401 160.652 283.536C160.197 282.671 159.97 281.666 159.97 280.522C159.97 279.363 160.197 278.359 160.652 277.508C161.107 276.657 161.737 275.99 162.544 275.506C163.365 275.022 164.311 274.78 165.382 274.78C166.453 274.78 167.369 275.022 168.132 275.506C168.895 275.99 169.481 276.621 169.892 277.398C170.303 278.161 170.508 278.997 170.508 279.906C170.508 280.053 170.508 280.214 170.508 280.39C170.508 280.551 170.501 280.735 170.486 280.94H161.356V279.51H168.682C168.638 278.527 168.301 277.757 167.67 277.2C167.054 276.628 166.277 276.342 165.338 276.342C164.707 276.342 164.121 276.489 163.578 276.782C163.035 277.061 162.595 277.471 162.258 278.014C161.935 278.542 161.774 279.209 161.774 280.016V280.632C161.774 281.527 161.943 282.282 162.28 282.898C162.617 283.499 163.057 283.954 163.6 284.262C164.143 284.555 164.722 284.702 165.338 284.702C166.101 284.702 166.739 284.526 167.252 284.174C167.765 283.822 168.139 283.345 168.374 282.744H170.2C170.009 283.419 169.694 284.02 169.254 284.548C168.814 285.076 168.264 285.494 167.604 285.802C166.959 286.11 166.203 286.264 165.338 286.264ZM173.551 286V273.196C173.551 272.492 173.669 271.92 173.903 271.48C174.138 271.025 174.483 270.695 174.937 270.49C175.407 270.27 175.979 270.16 176.653 270.16H177.797V271.744H176.939C176.397 271.744 176.001 271.854 175.751 272.074C175.517 272.294 175.399 272.683 175.399 273.24V286H173.551ZM171.901 276.606V275.044H178.105V276.606H171.901ZM183.505 286.264C182.596 286.264 181.841 286.11 181.239 285.802C180.638 285.494 180.191 285.083 179.897 284.57C179.604 284.057 179.457 283.492 179.457 282.876C179.457 282.128 179.648 281.497 180.029 280.984C180.425 280.471 180.975 280.082 181.679 279.818C182.398 279.539 183.241 279.4 184.209 279.4H187.157C187.157 278.725 187.047 278.168 186.827 277.728C186.607 277.273 186.292 276.929 185.881 276.694C185.471 276.459 184.979 276.342 184.407 276.342C183.689 276.342 183.065 276.525 182.537 276.892C182.024 277.244 181.709 277.765 181.591 278.454H179.699C179.787 277.662 180.051 276.995 180.491 276.452C180.946 275.909 181.518 275.499 182.207 275.22C182.911 274.927 183.645 274.78 184.407 274.78C185.419 274.78 186.263 274.971 186.937 275.352C187.627 275.719 188.14 276.239 188.477 276.914C188.829 277.574 189.005 278.359 189.005 279.268V286H187.355L187.245 284.042C187.099 284.35 186.908 284.643 186.673 284.922C186.453 285.186 186.189 285.421 185.881 285.626C185.588 285.817 185.243 285.971 184.847 286.088C184.451 286.205 184.004 286.264 183.505 286.264ZM183.791 284.702C184.319 284.702 184.789 284.599 185.199 284.394C185.625 284.174 185.984 283.881 186.277 283.514C186.571 283.147 186.791 282.737 186.937 282.282C187.084 281.827 187.157 281.358 187.157 280.874V280.83H184.363C183.645 280.83 183.065 280.918 182.625 281.094C182.185 281.255 181.87 281.483 181.679 281.776C181.489 282.069 181.393 282.407 181.393 282.788C181.393 283.184 181.481 283.529 181.657 283.822C181.848 284.101 182.119 284.321 182.471 284.482C182.838 284.629 183.278 284.702 183.791 284.702ZM196.815 286.264C195.774 286.264 194.835 286.029 193.999 285.56C193.178 285.076 192.525 284.401 192.041 283.536C191.572 282.671 191.337 281.673 191.337 280.544C191.337 279.385 191.572 278.381 192.041 277.53C192.525 276.665 193.178 275.99 193.999 275.506C194.835 275.022 195.774 274.78 196.815 274.78C198.121 274.78 199.213 275.125 200.093 275.814C200.973 276.489 201.531 277.391 201.765 278.52H199.873C199.727 277.845 199.367 277.317 198.795 276.936C198.223 276.555 197.556 276.364 196.793 276.364C196.177 276.364 195.598 276.525 195.055 276.848C194.513 277.156 194.073 277.618 193.735 278.234C193.398 278.85 193.229 279.613 193.229 280.522C193.229 281.211 193.325 281.82 193.515 282.348C193.721 282.861 193.985 283.294 194.307 283.646C194.645 283.998 195.026 284.262 195.451 284.438C195.891 284.614 196.339 284.702 196.793 284.702C197.307 284.702 197.776 284.621 198.201 284.46C198.627 284.284 198.986 284.035 199.279 283.712C199.573 283.389 199.771 283.001 199.873 282.546H201.765C201.531 283.646 200.973 284.541 200.093 285.23C199.213 285.919 198.121 286.264 196.815 286.264ZM209.252 286.264C208.211 286.264 207.287 286.029 206.48 285.56C205.673 285.076 205.035 284.401 204.566 283.536C204.111 282.671 203.884 281.666 203.884 280.522C203.884 279.363 204.111 278.359 204.566 277.508C205.021 276.657 205.651 275.99 206.458 275.506C207.279 275.022 208.225 274.78 209.296 274.78C210.367 274.78 211.283 275.022 212.046 275.506C212.809 275.99 213.395 276.621 213.806 277.398C214.217 278.161 214.422 278.997 214.422 279.906C214.422 280.053 214.422 280.214 214.422 280.39C214.422 280.551 214.415 280.735 214.4 280.94H205.27V279.51H212.596C212.552 278.527 212.215 277.757 211.584 277.2C210.968 276.628 210.191 276.342 209.252 276.342C208.621 276.342 208.035 276.489 207.492 276.782C206.949 277.061 206.509 277.471 206.172 278.014C205.849 278.542 205.688 279.209 205.688 280.016V280.632C205.688 281.527 205.857 282.282 206.194 282.898C206.531 283.499 206.971 283.954 207.514 284.262C208.057 284.555 208.636 284.702 209.252 284.702C210.015 284.702 210.653 284.526 211.166 284.174C211.679 283.822 212.053 283.345 212.288 282.744H214.114C213.923 283.419 213.608 284.02 213.168 284.548C212.728 285.076 212.178 285.494 211.518 285.802C210.873 286.11 210.117 286.264 209.252 286.264Z" fill="#D1D1D1" fill-opacity="0.7"/>
<path d="M455.694 54V38.6H464.736V39.436H456.684V45.86H464.076V46.718H456.684V53.164H464.736V54H455.694ZM466.471 54L470.145 48.5L466.471 42.912H467.549L470.827 47.928L474.105 42.912H475.161L471.509 48.478L475.161 54H474.105L470.827 49.05L467.549 54H466.471ZM481.026 54C480.439 54 479.94 53.912 479.53 53.736C479.134 53.56 478.826 53.2593 478.606 52.834C478.4 52.394 478.298 51.8073 478.298 51.074V43.77H476.362V42.912H478.298L478.452 40.492H479.288V42.912H482.764V43.77H479.288V51.052C479.288 51.8293 479.442 52.372 479.75 52.68C480.058 52.988 480.578 53.142 481.312 53.142H482.544V54H481.026ZM485.125 54V42.912H486.005L486.115 45.156C486.364 44.5693 486.687 44.0927 487.083 43.726C487.493 43.3593 487.977 43.088 488.535 42.912C489.092 42.736 489.723 42.648 490.427 42.648V43.66H490.03C489.59 43.66 489.136 43.7187 488.667 43.836C488.212 43.9533 487.787 44.166 487.391 44.474C487.009 44.7673 486.701 45.1927 486.466 45.75C486.232 46.3073 486.115 47.0187 486.115 47.884V54H485.125ZM495.902 54.264C495.066 54.264 494.362 54.1027 493.79 53.78C493.218 53.4573 492.785 53.0393 492.492 52.526C492.199 51.998 492.052 51.4333 492.052 50.832C492.052 50.0253 492.235 49.3653 492.602 48.852C492.969 48.3387 493.482 47.9573 494.142 47.708C494.817 47.444 495.594 47.312 496.474 47.312H499.818C499.818 46.52 499.701 45.8453 499.466 45.288C499.246 44.7307 498.901 44.298 498.432 43.99C497.963 43.682 497.347 43.528 496.584 43.528C495.689 43.528 494.949 43.7407 494.362 44.166C493.79 44.5913 493.423 45.2367 493.262 46.102H492.25C492.353 45.3247 492.609 44.6867 493.02 44.188C493.445 43.6747 493.966 43.2933 494.582 43.044C495.198 42.78 495.865 42.648 496.584 42.648C497.596 42.648 498.41 42.8533 499.026 43.264C499.642 43.66 500.089 44.2027 500.368 44.892C500.661 45.5667 500.808 46.3367 500.808 47.202V54H499.928L499.818 51.778C499.701 52.0127 499.539 52.2767 499.334 52.57C499.129 52.8633 498.872 53.1347 498.564 53.384C498.256 53.6333 497.882 53.8387 497.442 54C497.017 54.176 496.503 54.264 495.902 54.264ZM496.012 53.362C496.643 53.362 497.193 53.2447 497.662 53.01C498.131 52.7607 498.527 52.438 498.85 52.042C499.173 51.6313 499.415 51.1913 499.576 50.722C499.737 50.2527 499.818 49.7907 499.818 49.336V48.17H496.54C495.675 48.17 494.993 48.2873 494.494 48.522C493.995 48.742 493.636 49.05 493.416 49.446C493.211 49.842 493.108 50.2967 493.108 50.81C493.108 51.2793 493.218 51.712 493.438 52.108C493.658 52.4893 493.988 52.7973 494.428 53.032C494.868 53.252 495.396 53.362 496.012 53.362ZM509.34 54V38.6H510.33V53.186H517.81V54H509.34ZM520.383 54V42.912H521.373V54H520.383ZM520.889 39.986C520.684 39.986 520.501 39.9127 520.339 39.766C520.193 39.6047 520.119 39.414 520.119 39.194C520.119 38.974 520.193 38.798 520.339 38.666C520.501 38.5193 520.684 38.446 520.889 38.446C521.095 38.446 521.271 38.5193 521.417 38.666C521.579 38.798 521.659 38.974 521.659 39.194C521.659 39.414 521.579 39.6047 521.417 39.766C521.271 39.9127 521.095 39.986 520.889 39.986ZM528.968 59.104C528 59.104 527.142 58.9647 526.394 58.686C525.646 58.4073 525.052 57.9967 524.612 57.454C524.187 56.926 523.974 56.2807 523.974 55.518C523.974 55.1367 524.033 54.7627 524.15 54.396C524.282 54.0293 524.51 53.67 524.832 53.318C525.17 52.966 525.639 52.614 526.24 52.262L527.098 52.658C526.262 53.098 525.698 53.5453 525.404 54C525.126 54.4693 524.986 54.9387 524.986 55.408C524.986 55.9947 525.155 56.4933 525.492 56.904C525.844 57.3293 526.321 57.652 526.922 57.872C527.524 58.1067 528.206 58.224 528.968 58.224C529.775 58.224 530.464 58.114 531.036 57.894C531.608 57.674 532.048 57.3587 532.356 56.948C532.679 56.5373 532.84 56.068 532.84 55.54C532.84 54.8067 532.576 54.2273 532.048 53.802C531.535 53.362 530.604 53.1053 529.254 53.032C528.433 52.9733 527.744 52.9 527.186 52.812C526.629 52.724 526.16 52.6213 525.778 52.504C525.397 52.372 525.074 52.2327 524.81 52.086C524.561 51.9393 524.326 51.7927 524.106 51.646V51.206L526.086 49.446L527.032 49.798L524.986 51.536V51.074C525.177 51.1767 525.36 51.2793 525.536 51.382C525.727 51.4847 525.962 51.58 526.24 51.668C526.534 51.756 526.93 51.844 527.428 51.932C527.942 52.0053 528.616 52.0713 529.452 52.13C530.538 52.2033 531.403 52.3867 532.048 52.68C532.694 52.9587 533.156 53.3327 533.434 53.802C533.713 54.2713 533.852 54.8287 533.852 55.474C533.852 56.09 533.684 56.6767 533.346 57.234C533.024 57.7913 532.503 58.2387 531.784 58.576C531.066 58.928 530.127 59.104 528.968 59.104ZM528.946 50.546C527.993 50.546 527.201 50.37 526.57 50.018C525.94 49.666 525.463 49.1967 525.14 48.61C524.818 48.0087 524.656 47.3413 524.656 46.608C524.656 45.8453 524.818 45.1707 525.14 44.584C525.463 43.9827 525.94 43.5133 526.57 43.176C527.201 42.824 527.993 42.648 528.946 42.648C529.929 42.648 530.736 42.824 531.366 43.176C531.997 43.5133 532.466 43.9827 532.774 44.584C533.082 45.1707 533.236 45.8453 533.236 46.608C533.236 47.3413 533.082 48.0087 532.774 48.61C532.466 49.1967 531.997 49.666 531.366 50.018C530.736 50.37 529.929 50.546 528.946 50.546ZM528.946 49.666C530.032 49.666 530.853 49.402 531.41 48.874C531.968 48.3313 532.246 47.576 532.246 46.608C532.246 45.5667 531.96 44.7967 531.388 44.298C530.816 43.7847 530.002 43.528 528.946 43.528C527.949 43.528 527.15 43.7847 526.548 44.298C525.962 44.7967 525.668 45.5667 525.668 46.608C525.668 47.6053 525.962 48.368 526.548 48.896C527.15 49.4093 527.949 49.666 528.946 49.666ZM530.882 43.814L530.53 42.912H534.732V43.748L530.882 43.814ZM537.246 54V38.16H538.236V45.222C538.602 44.4007 539.138 43.77 539.842 43.33C540.56 42.8753 541.323 42.648 542.13 42.648C542.936 42.648 543.648 42.8093 544.264 43.132C544.88 43.4547 545.356 43.9533 545.694 44.628C546.046 45.3027 546.222 46.168 546.222 47.224V54H545.254V47.378C545.254 46.0727 544.975 45.112 544.418 44.496C543.86 43.8653 543.061 43.55 542.02 43.55C541.301 43.55 540.656 43.7333 540.084 44.1C539.512 44.452 539.057 44.9653 538.72 45.64C538.397 46.3 538.236 47.114 538.236 48.082V54H537.246ZM552.977 54C552.39 54 551.892 53.912 551.481 53.736C551.085 53.56 550.777 53.2593 550.557 52.834C550.352 52.394 550.249 51.8073 550.249 51.074V43.77H548.313V42.912H550.249L550.403 40.492H551.239V42.912H554.715V43.77H551.239V51.052C551.239 51.8293 551.393 52.372 551.701 52.68C552.009 52.988 552.53 53.142 553.263 53.142H554.495V54H552.977Z" fill="white"/>
<path d="M455.716 114.5V99.1H457.256V113.246H464.538V114.5H455.716ZM467.212 114.5V103.412H468.73V114.5H467.212ZM467.982 100.794C467.674 100.794 467.41 100.691 467.19 100.486C466.97 100.266 466.86 99.9947 466.86 99.672C466.86 99.3347 466.962 99.0707 467.168 98.88C467.388 98.6747 467.652 98.572 467.96 98.572C468.268 98.572 468.532 98.6747 468.752 98.88C468.972 99.0707 469.082 99.3347 469.082 99.672C469.082 99.9947 468.972 100.266 468.752 100.486C468.546 100.691 468.29 100.794 467.982 100.794ZM476.373 119.604C475.391 119.604 474.518 119.472 473.755 119.208C473.007 118.944 472.413 118.548 471.973 118.02C471.548 117.492 471.335 116.839 471.335 116.062C471.335 115.754 471.387 115.417 471.489 115.05C471.607 114.698 471.827 114.339 472.149 113.972C472.472 113.605 472.927 113.275 473.513 112.982L474.767 113.532C473.99 113.899 473.484 114.295 473.249 114.72C473.015 115.16 472.897 115.556 472.897 115.908C472.897 116.436 473.044 116.876 473.337 117.228C473.645 117.58 474.056 117.844 474.569 118.02C475.097 118.211 475.699 118.306 476.373 118.306C477.048 118.306 477.627 118.203 478.111 117.998C478.61 117.807 478.991 117.529 479.255 117.162C479.519 116.81 479.651 116.399 479.651 115.93C479.651 115.387 479.439 114.925 479.013 114.544C478.603 114.177 477.833 113.965 476.703 113.906C475.809 113.847 475.068 113.774 474.481 113.686C473.909 113.583 473.433 113.466 473.051 113.334C472.685 113.187 472.377 113.033 472.127 112.872C471.893 112.711 471.665 112.535 471.445 112.344V111.838L473.557 109.836L474.965 110.342L472.897 112.19L473.029 111.596C473.191 111.713 473.345 111.823 473.491 111.926C473.653 112.029 473.858 112.117 474.107 112.19C474.371 112.249 474.731 112.315 475.185 112.388C475.655 112.447 476.285 112.505 477.077 112.564C478.089 112.637 478.896 112.813 479.497 113.092C480.099 113.371 480.539 113.745 480.817 114.214C481.096 114.683 481.235 115.233 481.235 115.864C481.235 116.495 481.059 117.096 480.707 117.668C480.37 118.24 479.842 118.702 479.123 119.054C478.419 119.421 477.503 119.604 476.373 119.604ZM476.351 110.98C475.413 110.98 474.621 110.804 473.975 110.452C473.345 110.1 472.861 109.631 472.523 109.044C472.186 108.443 472.017 107.783 472.017 107.064C472.017 106.331 472.186 105.671 472.523 105.084C472.861 104.497 473.352 104.028 473.997 103.676C474.643 103.324 475.427 103.148 476.351 103.148C477.29 103.148 478.075 103.324 478.705 103.676C479.351 104.028 479.835 104.497 480.157 105.084C480.495 105.671 480.663 106.331 480.663 107.064C480.663 107.783 480.495 108.443 480.157 109.044C479.835 109.631 479.351 110.1 478.705 110.452C478.075 110.804 477.29 110.98 476.351 110.98ZM476.351 109.66C477.202 109.66 477.869 109.44 478.353 109C478.852 108.545 479.101 107.9 479.101 107.064C479.101 106.213 478.852 105.568 478.353 105.128C477.869 104.688 477.202 104.468 476.351 104.468C475.501 104.468 474.819 104.688 474.305 105.128C473.807 105.568 473.557 106.213 473.557 107.064C473.557 107.9 473.807 108.545 474.305 109C474.804 109.44 475.486 109.66 476.351 109.66ZM478.155 104.798L477.605 103.412H482.093V104.666L478.155 104.798ZM484.222 114.5V98.66H485.762V105.392C486.143 104.688 486.671 104.138 487.346 103.742C488.021 103.346 488.761 103.148 489.568 103.148C490.404 103.148 491.13 103.317 491.746 103.654C492.377 103.991 492.861 104.505 493.198 105.194C493.55 105.883 493.726 106.763 493.726 107.834V114.5H492.208V108.01C492.208 106.822 491.959 105.942 491.46 105.37C490.976 104.783 490.257 104.49 489.304 104.49C488.644 104.49 488.043 104.651 487.5 104.974C486.972 105.297 486.547 105.766 486.224 106.382C485.916 106.983 485.762 107.731 485.762 108.626V114.5H484.222ZM500.842 114.5C500.211 114.5 499.669 114.405 499.214 114.214C498.759 114.009 498.407 113.679 498.158 113.224C497.923 112.755 497.806 112.117 497.806 111.31V104.732H495.87V103.412H497.806L498.026 100.838H499.346V103.434H502.668V104.732H499.346V111.31C499.346 112.043 499.493 112.542 499.786 112.806C500.079 113.055 500.6 113.18 501.348 113.18H502.492V114.5H500.842Z" fill="white"/>
<path d="M455.694 175V159.6H460.666C461.869 159.6 462.851 159.805 463.614 160.216C464.377 160.612 464.941 161.147 465.308 161.822C465.675 162.497 465.858 163.259 465.858 164.11C465.858 164.931 465.667 165.687 465.286 166.376C464.919 167.065 464.347 167.615 463.57 168.026C462.793 168.437 461.795 168.642 460.578 168.642H457.542V175H455.694ZM463.834 175L460.446 168.114H462.514L466.012 175H463.834ZM457.542 167.19H460.534C461.707 167.19 462.565 166.904 463.108 166.332C463.665 165.76 463.944 165.027 463.944 164.132C463.944 163.223 463.673 162.504 463.13 161.976C462.602 161.433 461.729 161.162 460.512 161.162H457.542V167.19ZM472.84 175.264C471.814 175.264 470.904 175.015 470.112 174.516C469.32 174.017 468.697 173.313 468.242 172.404C467.802 171.495 467.582 170.431 467.582 169.214C467.582 167.997 467.802 166.933 468.242 166.024C468.697 165.115 469.32 164.411 470.112 163.912C470.919 163.413 471.843 163.164 472.884 163.164C473.999 163.164 474.93 163.413 475.678 163.912C476.426 164.411 476.991 165.078 477.372 165.914C477.754 166.75 477.944 167.667 477.944 168.664C477.944 168.811 477.944 168.957 477.944 169.104C477.944 169.251 477.937 169.427 477.922 169.632H468.968V168.202H476.14C476.111 167.073 475.781 166.215 475.15 165.628C474.534 165.027 473.764 164.726 472.84 164.726C472.224 164.726 471.652 164.88 471.124 165.188C470.611 165.481 470.193 165.921 469.87 166.508C469.548 167.095 469.386 167.828 469.386 168.708V169.324C469.386 170.292 469.548 171.106 469.87 171.766C470.193 172.411 470.611 172.895 471.124 173.218C471.652 173.541 472.224 173.702 472.84 173.702C473.662 173.702 474.307 173.548 474.776 173.24C475.246 172.917 475.59 172.463 475.81 171.876H477.636C477.46 172.521 477.152 173.101 476.712 173.614C476.287 174.127 475.744 174.531 475.084 174.824C474.439 175.117 473.691 175.264 472.84 175.264ZM484.973 180.104C483.932 180.104 483.015 179.972 482.223 179.708C481.446 179.459 480.837 179.07 480.397 178.542C479.972 178.014 479.759 177.361 479.759 176.584C479.759 176.217 479.825 175.836 479.957 175.44C480.104 175.044 480.346 174.663 480.683 174.296C481.035 173.929 481.526 173.599 482.157 173.306L483.565 174.054C482.729 174.377 482.186 174.751 481.937 175.176C481.688 175.601 481.563 176.012 481.563 176.408C481.563 176.892 481.702 177.295 481.981 177.618C482.274 177.941 482.678 178.183 483.191 178.344C483.704 178.505 484.298 178.586 484.973 178.586C485.633 178.586 486.198 178.498 486.667 178.322C487.151 178.161 487.518 177.919 487.767 177.596C488.031 177.288 488.163 176.921 488.163 176.496C488.163 175.88 487.965 175.396 487.569 175.044C487.173 174.707 486.403 174.509 485.259 174.45C484.364 174.391 483.616 174.311 483.015 174.208C482.414 174.105 481.915 173.988 481.519 173.856C481.138 173.709 480.815 173.548 480.551 173.372C480.302 173.196 480.074 173.013 479.869 172.822V172.316L482.047 170.226L483.785 170.798L481.409 172.756L481.695 171.92C481.856 172.037 482.01 172.147 482.157 172.25C482.304 172.353 482.502 172.448 482.751 172.536C483.015 172.609 483.374 172.683 483.829 172.756C484.298 172.829 484.914 172.895 485.677 172.954C486.733 173.027 487.576 173.203 488.207 173.482C488.838 173.761 489.292 174.149 489.571 174.648C489.85 175.132 489.989 175.726 489.989 176.43C489.989 177.046 489.813 177.633 489.461 178.19C489.124 178.747 488.581 179.202 487.833 179.554C487.1 179.921 486.146 180.104 484.973 180.104ZM484.951 171.392C484.012 171.392 483.213 171.216 482.553 170.864C481.908 170.497 481.416 170.006 481.079 169.39C480.742 168.759 480.573 168.055 480.573 167.278C480.573 166.501 480.742 165.804 481.079 165.188C481.431 164.572 481.93 164.081 482.575 163.714C483.235 163.347 484.027 163.164 484.951 163.164C485.904 163.164 486.704 163.347 487.349 163.714C487.994 164.081 488.486 164.572 488.823 165.188C489.16 165.804 489.329 166.501 489.329 167.278C489.329 168.055 489.16 168.759 488.823 169.39C488.486 170.006 487.994 170.497 487.349 170.864C486.704 171.216 485.904 171.392 484.951 171.392ZM484.951 169.874C485.772 169.874 486.41 169.661 486.865 169.236C487.32 168.796 487.547 168.143 487.547 167.278C487.547 166.413 487.32 165.767 486.865 165.342C486.41 164.917 485.772 164.704 484.951 164.704C484.174 164.704 483.536 164.917 483.037 165.342C482.553 165.767 482.311 166.413 482.311 167.278C482.311 168.143 482.546 168.796 483.015 169.236C483.499 169.661 484.144 169.874 484.951 169.874ZM486.887 164.99L486.337 163.428H490.869V164.814L486.887 164.99ZM497.253 175.264C496.403 175.264 495.662 175.103 495.031 174.78C494.401 174.457 493.909 173.966 493.557 173.306C493.205 172.631 493.029 171.795 493.029 170.798V163.428H494.877V170.6C494.877 171.627 495.127 172.397 495.625 172.91C496.139 173.423 496.821 173.68 497.671 173.68C498.258 173.68 498.786 173.548 499.255 173.284C499.725 173.005 500.099 172.602 500.377 172.074C500.671 171.546 500.817 170.901 500.817 170.138V163.428H502.665V175H500.993L500.883 173.152C500.575 173.827 500.099 174.347 499.453 174.714C498.823 175.081 498.089 175.264 497.253 175.264ZM505.792 175V159.16H507.64V175H505.792ZM514.363 175.264C513.483 175.264 512.75 175.103 512.163 174.78C511.577 174.443 511.137 174.003 510.843 173.46C510.55 172.903 510.403 172.309 510.403 171.678C510.403 170.915 510.594 170.27 510.975 169.742C511.371 169.199 511.921 168.789 512.625 168.51C513.329 168.231 514.151 168.092 515.089 168.092H517.971C517.971 167.344 517.883 166.721 517.707 166.222C517.531 165.723 517.245 165.349 516.849 165.1C516.453 164.851 515.925 164.726 515.265 164.726C514.605 164.726 514.041 164.895 513.571 165.232C513.102 165.555 512.809 166.039 512.691 166.684H510.799C510.887 165.921 511.144 165.283 511.569 164.77C511.995 164.242 512.53 163.846 513.175 163.582C513.835 163.303 514.532 163.164 515.265 163.164C516.307 163.164 517.165 163.355 517.839 163.736C518.514 164.103 519.013 164.623 519.335 165.298C519.658 165.958 519.819 166.743 519.819 167.652V175H518.169L518.059 173.02C517.913 173.328 517.722 173.621 517.487 173.9C517.267 174.164 517.003 174.399 516.695 174.604C516.387 174.809 516.035 174.971 515.639 175.088C515.258 175.205 514.833 175.264 514.363 175.264ZM514.627 173.702C515.111 173.702 515.559 173.592 515.969 173.372C516.38 173.152 516.732 172.859 517.025 172.492C517.333 172.111 517.568 171.685 517.729 171.216C517.891 170.747 517.971 170.255 517.971 169.742V169.522H515.243C514.554 169.522 513.989 169.61 513.549 169.786C513.124 169.962 512.816 170.211 512.625 170.534C512.435 170.842 512.339 171.194 512.339 171.59C512.339 172.015 512.427 172.389 512.603 172.712C512.779 173.02 513.036 173.262 513.373 173.438C513.725 173.614 514.143 173.702 514.627 173.702ZM522.873 175V163.428H524.545L524.677 165.54C524.941 165.012 525.285 164.572 525.711 164.22C526.136 163.868 526.649 163.604 527.251 163.428C527.867 163.252 528.556 163.164 529.319 163.164V165.1H528.175C527.735 165.1 527.309 165.159 526.899 165.276C526.488 165.393 526.114 165.584 525.777 165.848C525.454 166.112 525.197 166.471 525.007 166.926C524.816 167.381 524.721 167.953 524.721 168.642V175H522.873Z" fill="white"/>
<path d="M460.732 235.764C459.617 235.764 458.627 235.566 457.762 235.17C456.897 234.774 456.222 234.209 455.738 233.476C455.254 232.743 455.005 231.87 454.99 230.858H457.784C457.784 231.371 457.901 231.833 458.136 232.244C458.385 232.64 458.723 232.955 459.148 233.19C459.588 233.425 460.116 233.542 460.732 233.542C461.26 233.542 461.715 233.461 462.096 233.3C462.492 233.124 462.793 232.882 462.998 232.574C463.218 232.251 463.328 231.877 463.328 231.452C463.328 230.968 463.211 230.572 462.976 230.264C462.756 229.941 462.448 229.67 462.052 229.45C461.656 229.23 461.201 229.039 460.688 228.878C460.175 228.702 459.632 228.519 459.06 228.328C457.843 227.917 456.926 227.397 456.31 226.766C455.694 226.121 455.386 225.263 455.386 224.192C455.386 223.297 455.599 222.527 456.024 221.882C456.449 221.237 457.043 220.738 457.806 220.386C458.583 220.019 459.478 219.836 460.49 219.836C461.517 219.836 462.411 220.019 463.174 220.386C463.951 220.753 464.56 221.266 465 221.926C465.455 222.571 465.689 223.349 465.704 224.258H462.888C462.873 223.877 462.771 223.525 462.58 223.202C462.389 222.865 462.111 222.593 461.744 222.388C461.392 222.168 460.959 222.058 460.446 222.058C460.006 222.043 459.61 222.117 459.258 222.278C458.921 222.425 458.649 222.645 458.444 222.938C458.253 223.217 458.158 223.569 458.158 223.994C458.158 224.405 458.246 224.749 458.422 225.028C458.613 225.292 458.884 225.519 459.236 225.71C459.588 225.886 459.999 226.055 460.468 226.216C460.937 226.377 461.451 226.553 462.008 226.744C462.771 226.993 463.46 227.301 464.076 227.668C464.707 228.02 465.205 228.482 465.572 229.054C465.939 229.626 466.122 230.367 466.122 231.276C466.122 232.068 465.917 232.809 465.506 233.498C465.095 234.173 464.494 234.723 463.702 235.148C462.91 235.559 461.92 235.764 460.732 235.764ZM473.793 235.764C472.693 235.764 471.725 235.529 470.889 235.06C470.053 234.576 469.4 233.901 468.931 233.036C468.462 232.171 468.227 231.173 468.227 230.044C468.227 228.871 468.454 227.844 468.909 226.964C469.378 226.084 470.031 225.395 470.867 224.896C471.718 224.397 472.7 224.148 473.815 224.148C474.9 224.148 475.846 224.39 476.653 224.874C477.46 225.358 478.083 226.011 478.523 226.832C478.963 227.639 479.183 228.548 479.183 229.56C479.183 229.707 479.183 229.868 479.183 230.044C479.183 230.22 479.168 230.403 479.139 230.594H470.119V228.9H476.521C476.492 228.093 476.22 227.463 475.707 227.008C475.194 226.539 474.556 226.304 473.793 226.304C473.25 226.304 472.752 226.429 472.297 226.678C471.842 226.927 471.483 227.301 471.219 227.8C470.955 228.284 470.823 228.9 470.823 229.648V230.286C470.823 230.975 470.948 231.569 471.197 232.068C471.461 232.567 471.813 232.948 472.253 233.212C472.708 233.461 473.214 233.586 473.771 233.586C474.387 233.586 474.893 233.454 475.289 233.19C475.7 232.926 476 232.574 476.191 232.134H478.875C478.67 232.823 478.332 233.447 477.863 234.004C477.394 234.547 476.814 234.979 476.125 235.302C475.436 235.61 474.658 235.764 473.793 235.764ZM481.62 235.5V224.412H483.952L484.172 225.93C484.524 225.373 484.986 224.94 485.558 224.632C486.145 224.309 486.812 224.148 487.56 224.148C488.118 224.148 488.616 224.221 489.056 224.368C489.511 224.515 489.907 224.735 490.244 225.028C490.596 225.321 490.882 225.688 491.102 226.128C491.513 225.512 492.048 225.028 492.708 224.676C493.368 224.324 494.087 224.148 494.864 224.148C495.788 224.148 496.573 224.339 497.218 224.72C497.864 225.087 498.355 225.637 498.692 226.37C499.03 227.089 499.198 227.976 499.198 229.032V235.5H496.58V229.296C496.58 228.357 496.39 227.639 496.008 227.14C495.627 226.641 495.062 226.392 494.314 226.392C493.801 226.392 493.346 226.517 492.95 226.766C492.569 227.015 492.268 227.382 492.048 227.866C491.828 228.335 491.718 228.915 491.718 229.604V235.5H489.1V229.296C489.1 228.357 488.91 227.639 488.528 227.14C488.147 226.641 487.575 226.392 486.812 226.392C486.328 226.392 485.888 226.517 485.492 226.766C485.111 227.015 484.81 227.382 484.59 227.866C484.37 228.335 484.26 228.915 484.26 229.604V235.5H481.62ZM502.098 235.5V224.412H504.738V235.5H502.098ZM503.418 222.652C502.934 222.652 502.53 222.505 502.208 222.212C501.9 221.904 501.746 221.53 501.746 221.09C501.746 220.635 501.9 220.269 502.208 219.99C502.53 219.697 502.934 219.55 503.418 219.55C503.902 219.55 504.298 219.697 504.606 219.99C504.928 220.269 505.09 220.635 505.09 221.09C505.09 221.53 504.928 221.904 504.606 222.212C504.298 222.505 503.902 222.652 503.418 222.652ZM507.876 235.5V220.1H513.904C514.99 220.1 515.892 220.269 516.61 220.606C517.344 220.943 517.894 221.413 518.26 222.014C518.627 222.601 518.81 223.283 518.81 224.06C518.81 224.837 518.642 225.49 518.304 226.018C517.967 226.546 517.52 226.949 516.962 227.228C516.42 227.507 515.826 227.675 515.18 227.734L515.51 227.492C516.2 227.507 516.816 227.69 517.358 228.042C517.916 228.394 518.356 228.856 518.678 229.428C519.001 229.985 519.162 230.609 519.162 231.298C519.162 232.105 518.964 232.831 518.568 233.476C518.187 234.107 517.622 234.605 516.874 234.972C516.126 235.324 515.21 235.5 514.124 235.5H507.876ZM510.516 233.344H513.728C514.594 233.344 515.268 233.139 515.752 232.728C516.236 232.317 516.478 231.745 516.478 231.012C516.478 230.279 516.229 229.699 515.73 229.274C515.232 228.834 514.55 228.614 513.684 228.614H510.516V233.344ZM510.516 226.612H513.53C514.381 226.612 515.026 226.421 515.466 226.04C515.906 225.644 516.126 225.101 516.126 224.412C516.126 223.737 515.906 223.209 515.466 222.828C515.026 222.432 514.374 222.234 513.508 222.234H510.516V226.612ZM526.773 235.764C525.717 235.764 524.764 235.522 523.913 235.038C523.077 234.539 522.417 233.857 521.933 232.992C521.464 232.112 521.229 231.107 521.229 229.978C521.229 228.819 521.471 227.807 521.955 226.942C522.439 226.062 523.099 225.38 523.935 224.896C524.786 224.397 525.739 224.148 526.795 224.148C527.851 224.148 528.797 224.397 529.633 224.896C530.484 225.38 531.144 226.055 531.613 226.92C532.097 227.785 532.339 228.797 532.339 229.956C532.339 231.115 532.097 232.127 531.613 232.992C531.129 233.857 530.462 234.539 529.611 235.038C528.775 235.522 527.829 235.764 526.773 235.764ZM526.773 233.498C527.301 233.498 527.778 233.366 528.203 233.102C528.643 232.838 528.995 232.442 529.259 231.914C529.523 231.386 529.655 230.733 529.655 229.956C529.655 229.179 529.523 228.533 529.259 228.02C529.01 227.492 528.665 227.096 528.225 226.832C527.8 226.568 527.323 226.436 526.795 226.436C526.282 226.436 525.805 226.568 525.365 226.832C524.925 227.096 524.573 227.492 524.309 228.02C524.045 228.533 523.913 229.179 523.913 229.956C523.913 230.733 524.045 231.386 524.309 231.914C524.573 232.442 524.918 232.838 525.343 233.102C525.783 233.366 526.26 233.498 526.773 233.498ZM534.923 235.5V219.66H537.563V235.5H534.923ZM545.437 235.764C544.41 235.764 543.494 235.515 542.687 235.016C541.88 234.517 541.25 233.828 540.795 232.948C540.355 232.068 540.135 231.071 540.135 229.956C540.135 228.841 540.362 227.851 540.817 226.986C541.272 226.106 541.902 225.417 542.709 224.918C543.53 224.405 544.454 224.148 545.481 224.148C546.317 224.148 547.043 224.309 547.659 224.632C548.29 224.94 548.788 225.38 549.155 225.952V219.66H551.795V235.5H549.419L549.155 233.894C548.92 234.217 548.634 234.525 548.297 234.818C547.96 235.097 547.556 235.324 547.087 235.5C546.618 235.676 546.068 235.764 545.437 235.764ZM545.987 233.476C546.618 233.476 547.175 233.329 547.659 233.036C548.143 232.728 548.517 232.31 548.781 231.782C549.045 231.254 549.177 230.645 549.177 229.956C549.177 229.267 549.045 228.658 548.781 228.13C548.517 227.602 548.143 227.191 547.659 226.898C547.175 226.605 546.618 226.458 545.987 226.458C545.386 226.458 544.843 226.605 544.359 226.898C543.875 227.191 543.494 227.602 543.215 228.13C542.951 228.658 542.819 229.267 542.819 229.956C542.819 230.645 542.951 231.254 543.215 231.782C543.494 232.31 543.875 232.728 544.359 233.036C544.843 233.329 545.386 233.476 545.987 233.476Z" fill="white"/>
<path d="M454.682 296L457.388 280.6H459.236L456.53 296H454.682ZM464.062 296C463.314 296 462.712 295.883 462.258 295.648C461.803 295.413 461.495 295.047 461.334 294.548C461.187 294.049 461.18 293.411 461.312 292.634L462.412 286.474H460.63L460.916 284.912H462.698L463.402 282.228H465.03L464.546 284.912H467.78L467.494 286.474H464.26L463.16 292.634C463.042 293.323 463.108 293.793 463.358 294.042C463.607 294.291 464.047 294.416 464.678 294.416H466.086L465.8 296H464.062ZM471.756 296.264C470.935 296.264 470.26 296.125 469.732 295.846C469.219 295.553 468.845 295.171 468.61 294.702C468.375 294.218 468.273 293.705 468.302 293.162C468.331 292.37 468.573 291.688 469.028 291.116C469.483 290.544 470.113 290.104 470.92 289.796C471.727 289.488 472.651 289.334 473.692 289.334H476.618C476.735 288.63 476.728 288.051 476.596 287.596C476.479 287.127 476.237 286.782 475.87 286.562C475.503 286.327 475.027 286.21 474.44 286.21C473.736 286.21 473.098 286.386 472.526 286.738C471.954 287.09 471.543 287.611 471.294 288.3H469.38C469.615 287.508 469.996 286.848 470.524 286.32C471.067 285.777 471.697 285.367 472.416 285.088C473.135 284.795 473.89 284.648 474.682 284.648C475.679 284.648 476.486 284.839 477.102 285.22C477.733 285.587 478.158 286.107 478.378 286.782C478.613 287.442 478.649 288.227 478.488 289.136L477.3 296H475.628L475.87 294.042C475.665 294.35 475.423 294.643 475.144 294.922C474.88 295.186 474.579 295.421 474.242 295.626C473.905 295.831 473.531 295.985 473.12 296.088C472.709 296.205 472.255 296.264 471.756 296.264ZM472.306 294.702C472.819 294.702 473.311 294.599 473.78 294.394C474.264 294.174 474.689 293.881 475.056 293.514C475.437 293.147 475.738 292.737 475.958 292.282C476.193 291.827 476.317 291.351 476.332 290.852L476.354 290.764H473.582C472.893 290.764 472.299 290.859 471.8 291.05C471.316 291.226 470.942 291.483 470.678 291.82C470.429 292.143 470.289 292.531 470.26 292.986C470.231 293.514 470.392 293.932 470.744 294.24C471.096 294.548 471.617 294.702 472.306 294.702ZM480.353 296L483.169 280.16H485.017L482.201 296H480.353ZM485.471 296L487.429 284.912H489.277L487.319 296H485.471ZM488.991 282.558C488.624 282.558 488.323 282.441 488.089 282.206C487.854 281.971 487.729 281.671 487.715 281.304C487.715 280.937 487.832 280.637 488.067 280.402C488.316 280.167 488.624 280.05 488.991 280.05C489.343 280.05 489.643 280.167 489.893 280.402C490.142 280.622 490.267 280.923 490.267 281.304C490.281 281.671 490.157 281.971 489.893 282.206C489.643 282.441 489.343 282.558 488.991 282.558ZM495.551 296.264C494.627 296.264 493.813 296.059 493.109 295.648C492.405 295.223 491.87 294.636 491.503 293.888C491.151 293.14 490.997 292.267 491.041 291.27C491.085 290.302 491.283 289.415 491.635 288.608C491.987 287.801 492.464 287.105 493.065 286.518C493.667 285.931 494.349 285.477 495.111 285.154C495.889 284.817 496.717 284.648 497.597 284.648C498.917 284.648 499.959 285 500.721 285.704C501.499 286.393 501.902 287.325 501.931 288.498H500.039C500.025 287.75 499.753 287.185 499.225 286.804C498.712 286.423 498.081 286.232 497.333 286.232C496.556 286.232 495.845 286.437 495.199 286.848C494.554 287.259 494.026 287.831 493.615 288.564C493.219 289.283 492.999 290.133 492.955 291.116C492.926 291.688 492.977 292.201 493.109 292.656C493.241 293.096 493.439 293.47 493.703 293.778C493.967 294.071 494.275 294.299 494.627 294.46C494.994 294.621 495.397 294.702 495.837 294.702C496.336 294.702 496.813 294.614 497.267 294.438C497.737 294.262 498.155 294.005 498.521 293.668C498.888 293.331 499.167 292.913 499.357 292.414H501.249C500.971 293.162 500.553 293.829 499.995 294.416C499.438 294.988 498.778 295.443 498.015 295.78C497.253 296.103 496.431 296.264 495.551 296.264Z" fill="white"/>
</svg>
