<svg width="612" height="202" viewBox="0 0 612 202" fill="none" xmlns="http://www.w3.org/2000/svg">
<path d="M103.994 69.6687H95.3518L99.961 73.2408L103.994 69.6687Z" fill="white"/>
<path fill-rule="evenodd" clip-rule="evenodd" d="M53.3224 101.943C45.9908 101.173 36.3998 104.239 21.6204 112.983L17.6536 115.33L21.6055 107.694L12.9595 107.397L16.9263 105.05C31.9225 96.1768 43.7718 91.6707 54.2855 92.7751C71.1612 94.548 79.3908 110.114 80.1526 124.575C80.9151 139.05 74.4383 155.678 58.4963 160.572C48.2295 163.725 37.4039 161.586 30.3234 152.46L37.6066 146.809C41.9131 152.36 48.4761 154.006 55.7906 151.76C66.0874 148.599 71.5895 137.256 70.947 125.059C70.3037 112.847 63.7441 103.038 53.3224 101.943Z" fill="white"/>
<path fill-rule="evenodd" clip-rule="evenodd" d="M67.9576 5.41776L74.666 12.1262C84.6137 6.51866 103.491 1.04702 121.87 12.1226L128.892 5.41952L135.257 12.0876L119.724 21.7362C102.56 9.4762 83.9469 16.5499 76.6861 21.7362L61.4392 11.9361L67.9576 5.41776ZM123.239 27.3401C132.506 27.8816 140.391 31.1346 145.675 39.7211L145.745 39.8344L145.808 39.9515C151.315 50.1796 151.222 59.6047 147.605 67.7744C144.105 75.6789 137.503 81.9835 130.734 86.7958C123.909 91.6479 116.518 95.2612 110.897 97.6493C108.073 98.8494 105.663 99.7538 103.949 100.361C103.092 100.665 102.407 100.895 101.93 101.052C101.691 101.13 101.504 101.19 101.373 101.231C101.308 101.252 101.256 101.268 101.22 101.279L101.175 101.293L101.157 101.299C101.157 101.299 101.153 101.3 99.8106 96.8903C98.0851 101.164 98.0844 101.164 98.0844 101.164L98.0831 101.164L98.0042 101.132C97.9529 101.111 97.8777 101.08 97.78 101.04C97.5846 100.961 97.299 100.844 96.9341 100.694C96.2045 100.393 95.1571 99.9586 93.8788 99.4189C91.3242 98.3405 87.837 96.8384 84.1149 95.1468C80.4001 93.4584 76.4124 91.5637 72.8697 89.7005C69.4098 87.8809 66.0852 85.9435 63.8895 84.1521C53.1611 75.3995 48.0881 65.6663 47.4517 56.3551C46.8191 47.1011 50.6238 38.8967 56.4249 33.3724L56.539 33.2638L56.6602 33.1632C61.9689 28.7583 67.2679 27.3401 73.7853 27.3401C80.3028 27.3401 88.4176 29.9797 93.6143 32.6725L90.0593 39.7092C85.8053 37.5049 77.3368 35.1266 73.7853 35.3261C70.3347 35.5199 66.6733 36.868 62.6704 40.1553C58.7403 43.9561 56.2232 49.5042 56.6485 55.7265C57.0739 61.9502 60.4983 69.4885 69.7168 77.0093C71.1413 78.1715 73.7527 79.7495 77.1605 81.5417C80.4855 83.2904 84.2971 85.1038 87.9291 86.7545C91.5539 88.4019 94.9609 89.8697 97.464 90.9263C98.4661 91.3494 99.3216 91.7058 99.9862 91.9807C100.25 91.8903 100.545 91.7876 100.869 91.6728C102.435 91.1175 104.668 90.2804 107.292 89.1651C112.57 86.9227 119.305 83.6104 125.392 79.2826C131.536 74.9152 136.633 69.7855 139.176 64.0423C141.589 58.5919 141.892 52.1929 137.755 44.4398C133.725 37.9553 128.298 35.6564 122.647 35.3261C117.281 35.0125 110.34 36.3616 103.994 43.1661V69.6687H95.3519V39.7092C103.402 30.3884 113.971 26.7984 123.239 27.3401ZM99.8106 96.8903L98.0844 101.164L99.5953 101.774L101.153 101.3L99.8106 96.8903ZM126.67 100.433L135.301 97.1962L136.92 101.512C140.568 111.241 143.754 126.517 141.124 140.731C139.797 147.907 136.953 154.977 131.772 160.864C126.987 166.3 120.406 170.502 111.736 172.913L106.852 185.122L128.288 201.297H114.944L95.9292 187.609L104.942 165.075L107.291 164.534C115.472 162.646 121.047 159.097 124.852 154.773C128.688 150.415 130.96 144.999 132.06 139.054C134.286 127.025 131.576 113.516 128.288 104.749L126.67 100.433ZM89.9365 102.483L91.7928 106.702C99.7115 124.699 101.281 139.891 97.9686 152.592C94.6493 165.318 86.5955 174.901 76.5065 181.975C56.5629 195.96 28.5191 201.297 7.91348 201.297H0L4.89723 191.811C24.2132 191.243 53.4563 186.879 71.2142 174.428C79.9759 168.284 86.4088 160.386 89.0487 150.265C91.6951 140.119 90.6963 127.099 83.3551 110.415L81.4989 106.196L89.9365 102.483Z" fill="white"/>
<path fill-rule="evenodd" clip-rule="evenodd" d="M62.3648 100.15L11.2348 201.318H0L54.1535 95.9605L62.3648 100.15Z" fill="white"/>
<path d="M124.48 57.5573C124.48 60.1751 122.358 62.2973 119.74 62.2973C117.123 62.2973 115 60.1751 115 57.5573C115 54.9395 117.123 52.8174 119.74 52.8174C122.358 52.8174 124.48 54.9395 124.48 57.5573Z" fill="white"/>
<path d="M81.7642 57.5573C81.7642 60.1751 79.6421 62.2973 77.0243 62.2973C74.4065 62.2973 72.2843 60.1751 72.2843 57.5573C72.2843 54.9395 74.4065 52.8174 77.0243 52.8174C79.6421 52.8174 81.7642 54.9395 81.7642 57.5573Z" fill="white"/>
<path d="M181.646 33.8574C183.694 30.2925 186.728 27.3344 190.748 24.9831C194.844 22.5559 199.585 21.3423 204.97 21.3423C210.507 21.3423 215.513 22.6697 219.988 25.3244C224.539 27.9791 228.104 31.7336 230.682 36.5879C233.261 41.3664 234.551 46.9412 234.551 53.3125C234.551 59.608 233.261 65.2208 230.682 70.1509C228.104 75.0811 224.539 78.9114 219.988 81.642C215.513 84.3725 210.507 85.7378 204.97 85.7378C199.66 85.7378 194.958 84.5622 190.862 82.2109C186.842 79.7837 183.77 76.7877 181.646 73.2228V114.295H171.293V22.3663H181.646V33.8574ZM223.97 53.3125C223.97 48.6099 223.022 44.5141 221.126 41.0251C219.229 37.536 216.65 34.8813 213.389 33.061C210.203 31.2406 206.676 30.3304 202.808 30.3304C199.016 30.3304 195.489 31.2785 192.227 33.1747C189.042 34.9951 186.463 37.6877 184.491 41.2526C182.594 44.7416 181.646 48.7995 181.646 53.4263C181.646 58.1289 182.594 62.2627 184.491 65.8276C186.463 69.3166 189.042 72.0092 192.227 73.9054C195.489 75.7258 199.016 76.636 202.808 76.636C206.676 76.636 210.203 75.7258 213.389 73.9054C216.65 72.0092 219.229 69.3166 221.126 65.8276C223.022 62.2627 223.97 58.091 223.97 53.3125Z" fill="white"/>
<path d="M246.586 53.3125C246.586 46.9412 247.875 41.3664 250.454 36.5879C253.033 31.7336 256.56 27.9791 261.035 25.3244C265.586 22.6697 270.63 21.3423 276.167 21.3423C281.628 21.3423 286.368 22.518 290.388 24.8693C294.408 27.2206 297.404 30.1787 299.376 33.7436V22.3663H309.843V84.7139H299.376V73.109C297.328 76.7497 294.257 79.7837 290.161 82.2109C286.141 84.5622 281.438 85.7378 276.053 85.7378C270.516 85.7378 265.51 84.3725 261.035 81.642C256.56 78.9114 253.033 75.0811 250.454 70.1509C247.875 65.2208 246.586 59.608 246.586 53.3125ZM299.376 53.4263C299.376 48.7237 298.428 44.6279 296.532 41.1388C294.636 37.6498 292.057 34.9951 288.796 33.1747C285.61 31.2785 282.083 30.3304 278.215 30.3304C274.346 30.3304 270.819 31.2406 267.634 33.061C264.448 34.8813 261.907 37.536 260.011 41.0251C258.115 44.5141 257.167 48.6099 257.167 53.3125C257.167 58.091 258.115 62.2627 260.011 65.8276C261.907 69.3166 264.448 72.0092 267.634 73.9054C270.819 75.7258 274.346 76.636 278.215 76.636C282.083 76.636 285.61 75.7258 288.796 73.9054C292.057 72.0092 294.636 69.3166 296.532 65.8276C298.428 62.2627 299.376 58.1289 299.376 53.4263Z" fill="white"/>
<path d="M334.962 12.2405C332.99 12.2405 331.322 11.5579 329.956 10.1926C328.591 8.82732 327.908 7.15866 327.908 5.18659C327.908 3.21453 328.591 1.54586 329.956 0.180584C331.322 -1.18469 334.962 5.63949 334.962 5.63949C334.962 5.63949 338.451 -1.18469 339.741 0.180584C341.106 1.54586 341.789 3.21453 341.789 5.18659C341.789 7.15866 341.106 8.82732 339.741 10.1926C338.451 11.5579 336.859 12.2405 334.962 12.2405ZM339.968 22.3663V84.7139H329.615V22.3663H339.968Z" fill="white"/>
<path d="M385.602 21.3423C390.987 21.3423 395.69 22.518 399.71 24.8693C403.806 27.2206 406.84 30.1787 408.812 33.7436V22.3663H419.279V86.0791C419.279 91.7678 418.065 96.8117 415.638 101.211C413.211 105.686 409.722 109.175 405.171 111.678C400.696 114.181 395.462 115.433 389.47 115.433C381.279 115.433 374.452 113.498 368.991 109.63C363.53 105.762 360.307 100.49 359.32 93.8157H369.56C370.698 97.6081 373.049 100.642 376.614 102.918C380.179 105.269 384.464 106.444 389.47 106.444C395.159 106.444 399.786 104.662 403.351 101.097C406.991 97.5323 408.812 92.5263 408.812 86.0791V72.9952C406.764 76.636 403.73 79.6699 399.71 82.0971C395.69 84.5242 390.987 85.7378 385.602 85.7378C380.065 85.7378 375.021 84.3725 370.47 81.642C365.995 78.9114 362.468 75.0811 359.889 70.1509C357.31 65.2208 356.021 59.608 356.021 53.3125C356.021 46.9412 357.31 41.3664 359.889 36.5879C362.468 31.7336 365.995 27.9791 370.47 25.3244C375.021 22.6697 380.065 21.3423 385.602 21.3423ZM408.812 53.4263C408.812 48.7237 407.864 44.6279 405.967 41.1388C404.071 37.6498 401.492 34.9951 398.231 33.1747C395.045 31.2785 391.518 30.3304 387.65 30.3304C383.782 30.3304 380.255 31.2406 377.069 33.061C373.883 34.8813 371.342 37.536 369.446 41.0251C367.55 44.5141 366.602 48.6099 366.602 53.3125C366.602 58.091 367.55 62.2627 369.446 65.8276C371.342 69.3166 373.883 72.0092 377.069 73.9054C380.255 75.7258 383.782 76.636 387.65 76.636C391.518 76.636 395.045 75.7258 398.231 73.9054C401.492 72.0092 404.071 69.3166 405.967 65.8276C407.864 62.2627 408.812 58.1289 408.812 53.4263Z" fill="white"/>
<path d="M495.937 51.1508C495.937 53.1229 495.823 55.2087 495.596 57.4083H445.763C446.142 63.5521 448.228 68.3685 452.021 71.8575C455.889 75.2707 460.554 76.9773 466.015 76.9773C470.49 76.9773 474.206 75.9533 477.164 73.9054C480.198 71.7817 482.322 68.9753 483.536 65.4862H494.685C493.017 71.4783 489.679 76.3705 484.673 80.1629C479.667 83.8795 473.448 85.7378 466.015 85.7378C460.098 85.7378 454.789 84.4105 450.086 81.7558C445.46 79.1011 441.819 75.3466 439.164 70.4922C436.509 65.5621 435.182 59.8734 435.182 53.4263C435.182 46.9792 436.472 41.3285 439.05 36.4741C441.629 31.6198 445.232 27.9033 449.859 25.3244C454.561 22.6697 459.947 21.3423 466.015 21.3423C471.931 21.3423 477.164 22.6318 481.715 25.2106C486.266 27.7895 489.755 31.3544 492.182 35.9053C494.685 40.3803 495.937 45.4622 495.937 51.1508ZM485.242 48.9892C485.242 45.045 484.37 41.6698 482.625 38.8634C480.881 35.9811 478.492 33.8194 475.458 32.3783C472.5 30.8614 469.2 30.1029 465.559 30.1029C460.326 30.1029 455.851 31.7715 452.134 35.1089C448.494 38.4462 446.408 43.073 445.877 48.9892H485.242Z" fill="white"/>
<path d="M184.036 189.99H210.773V200.457H171.066V121.385H184.036V189.99Z" fill="white"/>
<path d="M269.29 184.301H236.182L230.493 200.457H216.955L245.284 121.271H260.302L288.631 200.457H274.979L269.29 184.301ZM265.649 173.72L252.793 136.972L239.823 173.72H265.649Z" fill="white"/>
<path d="M352.033 121.385V131.966H330.985V200.457H318.015V131.966H296.853V121.385H352.033Z" fill="white"/>
<path d="M378.139 121.385V200.457H365.169V121.385H378.139Z" fill="white"/>
<path d="M478.449 121.385V200.457H465.479V146.301L441.359 200.457H432.371L408.137 146.301V200.457H395.167V121.385H409.161L436.922 183.391L464.569 121.385H478.449Z" fill="white"/>
<path d="M508.467 131.852V155.062H535.772V165.643H508.467V189.876H539.185V200.457H495.496V121.271H539.185V131.852H508.467Z" fill="white"/>
<path d="M596.233 200.457L578.029 168.828H568.131V200.457H555.161V121.385H582.466C588.534 121.385 593.654 122.447 597.825 124.571C602.073 126.694 605.221 129.539 607.269 133.104C609.392 136.668 610.454 140.65 610.454 145.05C610.454 150.207 608.937 154.91 605.903 159.158C602.945 163.329 598.356 166.173 592.137 167.69L611.706 200.457H596.233ZM568.131 158.475H582.466C587.32 158.475 590.961 157.261 593.388 154.834C595.891 152.407 597.143 149.145 597.143 145.05C597.143 140.954 595.929 137.768 593.502 135.493C591.075 133.141 587.396 131.966 582.466 131.966H568.131V158.475Z" fill="white"/>
</svg>
