<svg width="114" height="148" viewBox="0 0 114 148" fill="none" xmlns="http://www.w3.org/2000/svg">
<path d="M63.5 59.5C25.5001 62.4998 23.0002 0.500067 69.9999 5.00011" stroke="#0A1C3B" stroke-width="8" stroke-linecap="round"/>
<path d="M62 142L104 142" stroke="#0A1C3B" stroke-width="7" stroke-linecap="round"/>
<path d="M94.5 141.5L83 120.999C121.5 99.9994 117.5 15 71 5" stroke="#0A1C3B" stroke-width="8" stroke-linecap="round"/>
<path d="M4.5 124C19.3333 130.5 54.1 132.8 76.5 92" stroke="#0A1C3B" stroke-width="8" stroke-linecap="round"/>
<path d="M23 127.5L15.5 142C22.1667 144.5 44 143.5 65 128.5L72 142" stroke="#0A1C3B" stroke-width="8"/>
<path d="M4.5 124L37 67" stroke="#0A1C3B" stroke-width="8" stroke-linecap="round"/>
<path d="M37 67C67 74.5 52.5 113 21.5 95" stroke="#0A1C3B" stroke-width="8"/>
<circle cx="71.5" cy="21.5" r="4.5" fill="#0A1C3B"/>
<circle cx="51.5" cy="33.5" r="4.5" fill="#0A1C3B"/>
<rect x="63.8503" y="29" width="7.56492" height="7.56492" transform="rotate(13.3728 63.8503 29)" fill="#0A1C3B"/>
</svg>
