<svg width="85" height="111" viewBox="0 0 85 111" fill="none" xmlns="http://www.w3.org/2000/svg">
<path d="M47.5424 45.3927C19.499 47.6065 17.6541 1.85153 52.3392 5.17251" stroke="#0A1C3B" stroke-width="5.90389" stroke-linecap="round"/>
<path d="M46.4355 106.277L77.431 106.277" stroke="#0A1C3B" stroke-width="5.16591" stroke-linecap="round"/>
<path d="M70.4201 105.907L61.9332 90.7785C90.3457 75.2808 87.3938 12.5523 53.0774 5.17242" stroke="#0A1C3B" stroke-width="5.90389" stroke-linecap="round"/>
<path d="M4.00122 92.9929C14.948 97.7898 40.6054 99.4872 57.1363 69.3773" stroke="#0A1C3B" stroke-width="5.90389" stroke-linecap="round"/>
<path d="M17.654 95.5758L12.1191 106.277C17.0391 108.122 33.1518 107.384 48.6495 96.3138L53.8154 106.277" stroke="#0A1C3B" stroke-width="5.90389"/>
<path d="M4.00122 92.9929L27.9858 50.9276" stroke="#0A1C3B" stroke-width="5.90389" stroke-linecap="round"/>
<path d="M27.9857 50.9276C50.1253 56.4625 39.4245 84.875 16.5469 71.5912" stroke="#0A1C3B" stroke-width="5.90389"/>
<circle cx="53.4464" cy="17.3492" r="3.32094" fill="#0A1C3B"/>
<circle cx="38.6867" cy="26.205" r="3.32094" fill="#0A1C3B"/>
<rect x="47.801" y="22.8841" width="5.58281" height="5.58281" transform="rotate(13.3728 47.801 22.8841)" fill="#0A1C3B"/>
</svg>
