<svg width="290" height="109" viewBox="0 0 290 109" fill="none" xmlns="http://www.w3.org/2000/svg">
<path d="M46.5411 43.3927C18.4977 45.6065 16.6529 -0.148466 51.338 3.17251" stroke="white" stroke-width="5.90389" stroke-linecap="round"/>
<path d="M45.4343 104.277L76.4298 104.277" stroke="white" stroke-width="5.16591" stroke-linecap="round"/>
<path d="M69.4189 103.907L60.932 88.7785C89.3445 73.2808 86.3926 10.5523 52.0762 3.17242" stroke="white" stroke-width="5.90389" stroke-linecap="round"/>
<path d="M3 90.9929C13.9468 95.7898 39.6041 97.4872 56.135 67.3773" stroke="white" stroke-width="5.90389" stroke-linecap="round"/>
<path d="M16.6528 93.5758L11.1179 104.277C16.0378 106.122 32.1505 105.384 47.6483 94.3138L52.8142 104.277" stroke="white" stroke-width="5.90389"/>
<path d="M3 90.9929L26.9846 48.9276" stroke="#0A1C3B" stroke-width="5.90389" stroke-linecap="round"/>
<path d="M26.9847 48.9276C49.1243 54.4625 38.4235 82.875 15.5459 69.5912" stroke="#0A1C3B" stroke-width="5.90389"/>
<circle cx="52.4452" cy="15.3492" r="3.32094" fill="white"/>
<circle cx="37.6854" cy="24.205" r="3.32094" fill="white"/>
<rect x="46.7998" y="20.8841" width="5.58281" height="5.58281" transform="rotate(13.3728 46.7998 20.8841)" fill="white"/>
<rect x="161.032" y="5" width="6.11546" height="6.11546" rx="2" transform="rotate(0.302428 161.032 5)" fill="white"/>
<rect x="172" y="65" width="6.11546" height="6.11546" rx="2" fill="white"/>
<path d="M120.416 17.672C120.416 19.6507 119.949 21.5174 119.016 23.272C118.083 25.0267 116.589 26.464 114.536 27.584C112.483 28.6667 109.851 29.208 106.64 29.208H99.584V43C99.584 44.1046 98.6885 45 97.584 45H95.2C94.0954 45 93.2 44.1046 93.2 43V6.08002H106.64C109.627 6.08002 112.147 6.60268 114.2 7.64802C116.291 8.65602 117.84 10.0374 118.848 11.792C119.893 13.5467 120.416 15.5067 120.416 17.672ZM106.64 24C109.067 24 110.877 23.4587 112.072 22.376C113.267 21.256 113.864 19.688 113.864 17.672C113.864 13.416 111.456 11.288 106.64 11.288H99.584V24H106.64Z" fill="white"/>
<path d="M122.697 29.432C122.697 26.3334 123.331 23.5894 124.601 21.2C125.907 18.8107 127.662 16.9627 129.865 15.656C132.105 14.312 134.569 13.64 137.257 13.64C139.683 13.64 141.793 14.1254 143.585 15.096C145.414 16.0294 146.87 17.2054 147.953 18.624V16.144C147.953 15.0395 148.848 14.144 149.953 14.144H152.393C153.497 14.144 154.393 15.0395 154.393 16.144V43C154.393 44.1046 153.497 45 152.393 45H149.953C148.848 45 147.953 44.1046 147.953 43V40.408C146.87 41.864 145.395 43.0774 143.529 44.048C141.662 45.0187 139.534 45.504 137.145 45.504C134.494 45.504 132.067 44.832 129.865 43.488C127.662 42.1067 125.907 40.2027 124.601 37.776C123.331 35.312 122.697 32.5307 122.697 29.432ZM147.953 29.544C147.953 27.416 147.505 25.568 146.609 24C145.75 22.432 144.611 21.2374 143.193 20.416C141.774 19.5947 140.243 19.184 138.601 19.184C136.958 19.184 135.427 19.5947 134.009 20.416C132.59 21.2 131.433 22.376 130.537 23.944C129.678 25.4747 129.249 27.304 129.249 29.432C129.249 31.56 129.678 33.4267 130.537 35.032C131.433 36.6374 132.59 37.8694 134.009 38.728C135.465 39.5494 136.995 39.96 138.601 39.96C140.243 39.96 141.774 39.5494 143.193 38.728C144.611 37.9067 145.75 36.712 146.609 35.144C147.505 33.5387 147.953 31.672 147.953 29.544Z" fill="white"/>
<path d="M165.482 14.144C166.586 14.144 167.482 15.0395 167.482 16.144V43C167.482 44.1046 166.586 45 165.482 45H163.098C161.993 45 161.098 44.1046 161.098 43V16.144C161.098 15.0395 161.993 14.144 163.098 14.144H165.482Z" fill="white"/>
<path d="M186.615 13.64C189.005 13.64 191.114 14.1254 192.943 15.096C194.81 16.0294 196.266 17.2054 197.311 18.624V16.144C197.311 15.0395 198.207 14.144 199.311 14.144H201.751C202.856 14.144 203.751 15.0395 203.751 16.144V45.504C203.751 48.3414 203.154 50.8614 201.959 53.064C200.765 55.304 199.029 57.0587 196.751 58.328C194.511 59.5974 191.823 60.232 188.687 60.232C184.506 60.232 181.034 59.2427 178.271 57.264C176.139 55.7653 174.718 53.8438 174.009 51.4995C173.664 50.3585 174.61 49.312 175.802 49.312H178.411C179.292 49.312 180.041 49.9086 180.48 50.6735C181.047 51.6629 181.879 52.4971 182.975 53.176C184.581 54.184 186.485 54.688 188.687 54.688C191.263 54.688 193.335 53.904 194.903 52.336C196.509 50.768 197.311 48.4907 197.311 45.504V40.352C196.229 41.808 194.754 43.04 192.887 44.048C191.058 45.0187 188.967 45.504 186.615 45.504C183.927 45.504 181.463 44.832 179.223 43.488C177.021 42.1067 175.266 40.2027 173.959 37.776C172.69 35.312 172.055 32.5307 172.055 29.432C172.055 26.3334 172.69 23.5894 173.959 21.2C175.266 18.8107 177.021 16.9627 179.223 15.656C181.463 14.312 183.927 13.64 186.615 13.64ZM197.311 29.544C197.311 27.416 196.863 25.568 195.967 24C195.109 22.432 193.97 21.2374 192.551 20.416C191.133 19.5947 189.602 19.184 187.959 19.184C186.317 19.184 184.786 19.5947 183.367 20.416C181.949 21.2 180.791 22.376 179.895 23.944C179.037 25.4747 178.607 27.304 178.607 29.432C178.607 31.56 179.037 33.4267 179.895 35.032C180.791 36.6374 181.949 37.8694 183.367 38.728C184.823 39.5494 186.354 39.96 187.959 39.96C189.602 39.96 191.133 39.5494 192.551 38.728C193.97 37.9067 195.109 36.712 195.967 35.144C196.863 33.5387 197.311 31.672 197.311 29.544Z" fill="white"/>
<path d="M238.737 28.816C238.737 29.9734 238.662 31.0187 238.513 31.952H214.937C215.123 34.416 216.038 36.3947 217.681 37.888C219.323 39.3814 221.339 40.128 223.729 40.128C226.704 40.128 228.923 39.0492 230.386 36.8914C230.813 36.2613 231.49 35.816 232.252 35.816H235.133C236.495 35.816 237.456 37.1555 236.789 38.343C235.819 40.0709 234.49 41.5619 232.801 42.816C230.374 44.608 227.35 45.504 223.729 45.504C220.779 45.504 218.129 44.8507 215.777 43.544C213.462 42.2 211.633 40.3334 210.289 37.944C208.982 35.5174 208.329 32.7174 208.329 29.544C208.329 26.3707 208.963 23.5894 210.233 21.2C211.539 18.7734 213.35 16.9067 215.665 15.6C218.017 14.2934 220.705 13.64 223.729 13.64C226.641 13.64 229.235 14.2747 231.513 15.544C233.79 16.8134 235.563 18.6054 236.833 20.92C238.102 23.1974 238.737 25.8294 238.737 28.816ZM232.073 26.8C232.035 24.448 231.195 22.5627 229.553 21.144C227.91 19.7254 225.875 19.016 223.449 19.016C221.246 19.016 219.361 19.7254 217.793 21.144C216.225 22.5254 215.291 24.4107 214.993 26.8H232.073Z" fill="white"/>
<path d="M99.584 99.848H110.744C111.849 99.848 112.744 100.743 112.744 101.848V103C112.744 104.105 111.849 105 110.744 105H93.2V68.08C93.2 66.9754 94.0954 66.08 95.2 66.08H97.584C98.6885 66.08 99.584 66.9754 99.584 68.08V99.848Z" fill="white"/>
<path d="M114.275 89.432C114.275 86.3334 114.909 83.5894 116.179 81.2C117.485 78.8107 119.24 76.9627 121.443 75.656C123.683 74.312 126.147 73.64 128.835 73.64C131.261 73.64 133.371 74.1254 135.163 75.096C136.992 76.0294 138.448 77.2054 139.531 78.624V76.144C139.531 75.0394 140.426 74.144 141.531 74.144H143.971C145.075 74.144 145.971 75.0395 145.971 76.144V103C145.971 104.105 145.075 105 143.971 105H141.531C140.426 105 139.531 104.105 139.531 103V100.408C138.448 101.864 136.973 103.077 135.107 104.048C133.24 105.019 131.112 105.504 128.723 105.504C126.072 105.504 123.645 104.832 121.443 103.488C119.24 102.107 117.485 100.203 116.179 97.776C114.909 95.312 114.275 92.5307 114.275 89.432ZM139.531 89.544C139.531 87.416 139.083 85.568 138.187 84C137.328 82.432 136.189 81.2374 134.771 80.416C133.352 79.5947 131.821 79.184 130.179 79.184C128.536 79.184 127.005 79.5947 125.587 80.416C124.168 81.2 123.011 82.376 122.115 83.944C121.256 85.4747 120.827 87.304 120.827 89.432C120.827 91.56 121.256 93.4267 122.115 95.032C123.011 96.6374 124.168 97.8694 125.587 98.728C127.043 99.5494 128.573 99.96 130.179 99.96C131.821 99.96 133.352 99.5494 134.771 98.728C136.189 97.9067 137.328 96.712 138.187 95.144C139.083 93.5387 139.531 91.672 139.531 89.544Z" fill="white"/>
<path d="M160.124 79.352V96.432C160.124 97.5894 160.385 98.4294 160.908 98.952C161.468 99.4374 162.401 99.68 163.708 99.68H165.628C166.732 99.68 167.628 100.575 167.628 101.68V103C167.628 104.105 166.732 105 165.628 105H162.588C159.713 105 157.511 104.328 155.98 102.984C154.449 101.64 153.684 99.456 153.684 96.432V79.352H152.044C150.939 79.352 150.044 78.4566 150.044 77.352V76.144C150.044 75.0394 150.939 74.144 152.044 74.144H153.684V68.472C153.684 67.3675 154.579 66.472 155.684 66.472H158.124C159.228 66.472 160.124 67.3674 160.124 68.472V74.144H165.628C166.732 74.144 167.628 75.0395 167.628 76.144V77.352C167.628 78.4566 166.732 79.352 165.628 79.352H160.124Z" fill="white"/>
<path d="M176.216 74.144C177.32 74.144 178.216 75.0395 178.216 76.144V103C178.216 104.105 177.32 105 176.216 105H173.832C172.727 105 171.832 104.105 171.832 103V76.144C171.832 75.0395 172.727 74.144 173.832 74.144H176.216Z" fill="white"/>
<path d="M222.269 73.64C224.696 73.64 226.861 74.144 228.765 75.152C230.707 76.16 232.219 77.6534 233.301 79.632C234.421 81.6107 234.981 84 234.981 86.8V103C234.981 104.105 234.086 105 232.981 105H230.653C229.549 105 228.653 104.105 228.653 103V87.752C228.653 84.9894 227.963 82.88 226.581 81.424C225.2 79.9307 223.315 79.184 220.925 79.184C218.536 79.184 216.632 79.9307 215.213 81.424C213.832 82.88 213.141 84.9894 213.141 87.752V103C213.141 104.105 212.246 105 211.141 105H208.813C207.709 105 206.813 104.105 206.813 103V87.752C206.813 84.9894 206.123 82.88 204.741 81.424C203.36 79.9307 201.475 79.184 199.085 79.184C196.696 79.184 194.792 79.9307 193.373 81.424C191.992 82.88 191.301 84.9894 191.301 87.752V103C191.301 104.105 190.406 105 189.301 105H186.917C185.813 105 184.917 104.105 184.917 103V76.144C184.917 75.0395 185.813 74.144 186.917 74.144H189.301C190.406 74.144 191.301 75.0395 191.301 76.144V77.672C192.347 76.4027 193.672 75.4134 195.277 74.704C196.883 73.9947 198.6 73.64 200.429 73.64C202.893 73.64 205.096 74.1627 207.037 75.208C208.979 76.2534 210.472 77.7654 211.517 79.744C212.451 77.8774 213.907 76.4027 215.885 75.32C217.864 74.2 219.992 73.64 222.269 73.64Z" fill="white"/>
<path d="M269.705 88.816C269.705 89.9734 269.63 91.0187 269.481 91.952H245.905C246.092 94.416 247.006 96.3947 248.649 97.888C250.292 99.3814 252.308 100.128 254.697 100.128C257.673 100.128 259.892 99.0492 261.354 96.8915C261.781 96.2613 262.459 95.816 263.22 95.816H266.102C267.463 95.816 268.424 97.1555 267.758 98.3431C266.788 100.071 265.458 101.562 263.769 102.816C261.342 104.608 258.318 105.504 254.697 105.504C251.748 105.504 249.097 104.851 246.745 103.544C244.43 102.2 242.601 100.333 241.257 97.944C239.95 95.5174 239.297 92.7174 239.297 89.544C239.297 86.3707 239.932 83.5894 241.201 81.2C242.508 78.7734 244.318 76.9067 246.633 75.6C248.985 74.2934 251.673 73.64 254.697 73.64C257.609 73.64 260.204 74.2747 262.481 75.544C264.758 76.8134 266.532 78.6054 267.801 80.92C269.07 83.1974 269.705 85.8294 269.705 88.816ZM263.041 86.8C263.004 84.448 262.164 82.5627 260.521 81.144C258.878 79.7254 256.844 79.016 254.417 79.016C252.214 79.016 250.329 79.7254 248.761 81.144C247.193 82.5254 246.26 84.4107 245.961 86.8H263.041Z" fill="white"/>
<path d="M280.691 78.624C281.625 77.056 282.857 75.8427 284.387 74.984C285.444 74.3803 286.628 73.98 287.938 73.783C289.031 73.6189 289.931 74.5355 289.931 75.64V78.624C289.931 79.5209 289.204 80.248 288.307 80.248V80.248C285.806 80.248 283.902 80.8827 282.595 82.152C281.326 83.4214 280.691 85.624 280.691 88.76V103C280.691 104.105 279.796 105 278.691 105H276.307C275.203 105 274.307 104.105 274.307 103V76.144C274.307 75.0395 275.203 74.144 276.307 74.144H278.691C279.796 74.144 280.691 75.0395 280.691 76.144V78.624Z" fill="white"/>
</svg>
